M48
; DRILL file {KiCad (5.1.10)-1} date 11/11/21 09:49:12
; FORMAT={-:-/ absolute / inch / decimal}
; #@! TF.CreationDate,2021-11-11T09:49:12+05:30
; #@! TF.GenerationSoftware,Kicad,Pcbnew,(5.1.10)-1
; #@! TF.FileFunction,Plated,1,2,PTH
FMAT,2
INCH
T1C0.0287
T2C0.0300
T3C0.0315
T4C0.0354
T5C0.0433
T6C0.0469
T7C0.0591
%
G90
G05
T1
X5.83Y-3.34
X5.83Y-3.44
X5.83Y-3.54
X6.13Y-3.34
X6.13Y-3.44
X6.13Y-3.54
T2
X8.56Y-2.8638
X8.56Y-2.9425
X8.56Y-3.0213
X8.56Y-3.1
T3
X4.32Y-1.46
X4.32Y-1.56
X4.32Y-1.66
X4.32Y-1.76
X4.62Y-1.46
X4.62Y-1.56
X4.62Y-1.66
X4.62Y-1.76
X7.68Y-2.94
X7.68Y-3.04
X7.68Y-3.14
X7.98Y-2.94
X7.98Y-3.04
X7.98Y-3.14
T4
X3.96Y-1.54
X4.06Y-1.54
X6.86Y-3.44
X6.86Y-3.54
X7.06Y-2.74
X7.16Y-2.74
T5
X4.86Y-1.28
X4.86Y-1.68
X5.1Y-0.96
X5.1Y-1.36
T6
X6.32Y-3.52
X6.42Y-3.52
X6.52Y-3.52
T7
X4.58Y-2.46
X5.3867Y-2.46
T0
M30
