%TF.GenerationSoftware,KiCad,Pcbnew,(5.1.10)-1*%
%TF.CreationDate,2021-11-11T09:46:56+05:30*%
%TF.ProjectId,fan dimmer,66616e20-6469-46d6-9d65-722e6b696361,rev?*%
%TF.SameCoordinates,Original*%
%TF.FileFunction,Legend,Top*%
%TF.FilePolarity,Positive*%
%FSLAX46Y46*%
G04 Gerber Fmt 4.6, Leading zero omitted, Abs format (unit mm)*
G04 Created by KiCad (PCBNEW (5.1.10)-1) date 2021-11-11 09:46:56*
%MOMM*%
%LPD*%
G01*
G04 APERTURE LIST*
%ADD10C,0.100000*%
%ADD11C,0.150000*%
%ADD12C,0.300000*%
%ADD13C,0.400000*%
%ADD14C,0.120000*%
%ADD15C,0.152400*%
%ADD16C,0.240000*%
%ADD17C,0.127000*%
G04 APERTURE END LIST*
D10*
D11*
X177002200Y-166007200D02*
X177002200Y-198007200D01*
X285002200Y-198007200D01*
X285002200Y-166007200D01*
X177002200Y-166007200D01*
D10*
D11*
X10000000Y-10000000D02*
X10000000Y-200007200D01*
X287002200Y-200007200D01*
X287002200Y-10000000D01*
X10000000Y-10000000D01*
D10*
D11*
X12000000Y-12000000D02*
X12000000Y-198007200D01*
X285002200Y-198007200D01*
X285002200Y-12000000D01*
X12000000Y-12000000D01*
D10*
D11*
X60000000Y-12000000D02*
X60000000Y-10000000D01*
D10*
D11*
X110000000Y-12000000D02*
X110000000Y-10000000D01*
D10*
D11*
X160000000Y-12000000D02*
X160000000Y-10000000D01*
D10*
D11*
X210000000Y-12000000D02*
X210000000Y-10000000D01*
D10*
D11*
X260000000Y-12000000D02*
X260000000Y-10000000D01*
D10*
D11*
X36065476Y-11588095D02*
X35322619Y-11588095D01*
X35694047Y-11588095D02*
X35694047Y-10288095D01*
X35570238Y-10473809D01*
X35446428Y-10597619D01*
X35322619Y-10659523D01*
D10*
D11*
X85322619Y-10411904D02*
X85384523Y-10350000D01*
X85508333Y-10288095D01*
X85817857Y-10288095D01*
X85941666Y-10350000D01*
X86003571Y-10411904D01*
X86065476Y-10535714D01*
X86065476Y-10659523D01*
X86003571Y-10845238D01*
X85260714Y-11588095D01*
X86065476Y-11588095D01*
D10*
D11*
X135260714Y-10288095D02*
X136065476Y-10288095D01*
X135632142Y-10783333D01*
X135817857Y-10783333D01*
X135941666Y-10845238D01*
X136003571Y-10907142D01*
X136065476Y-11030952D01*
X136065476Y-11340476D01*
X136003571Y-11464285D01*
X135941666Y-11526190D01*
X135817857Y-11588095D01*
X135446428Y-11588095D01*
X135322619Y-11526190D01*
X135260714Y-11464285D01*
D10*
D11*
X185941666Y-10721428D02*
X185941666Y-11588095D01*
X185632142Y-10226190D02*
X185322619Y-11154761D01*
X186127380Y-11154761D01*
D10*
D11*
X236003571Y-10288095D02*
X235384523Y-10288095D01*
X235322619Y-10907142D01*
X235384523Y-10845238D01*
X235508333Y-10783333D01*
X235817857Y-10783333D01*
X235941666Y-10845238D01*
X236003571Y-10907142D01*
X236065476Y-11030952D01*
X236065476Y-11340476D01*
X236003571Y-11464285D01*
X235941666Y-11526190D01*
X235817857Y-11588095D01*
X235508333Y-11588095D01*
X235384523Y-11526190D01*
X235322619Y-11464285D01*
D10*
D11*
X285941666Y-10288095D02*
X285694047Y-10288095D01*
X285570238Y-10350000D01*
X285508333Y-10411904D01*
X285384523Y-10597619D01*
X285322619Y-10845238D01*
X285322619Y-11340476D01*
X285384523Y-11464285D01*
X285446428Y-11526190D01*
X285570238Y-11588095D01*
X285817857Y-11588095D01*
X285941666Y-11526190D01*
X286003571Y-11464285D01*
X286065476Y-11340476D01*
X286065476Y-11030952D01*
X286003571Y-10907142D01*
X285941666Y-10845238D01*
X285817857Y-10783333D01*
X285570238Y-10783333D01*
X285446428Y-10845238D01*
X285384523Y-10907142D01*
X285322619Y-11030952D01*
D10*
D11*
X60000000Y-198007200D02*
X60000000Y-200007200D01*
D10*
D11*
X110000000Y-198007200D02*
X110000000Y-200007200D01*
D10*
D11*
X160000000Y-198007200D02*
X160000000Y-200007200D01*
D10*
D11*
X210000000Y-198007200D02*
X210000000Y-200007200D01*
D10*
D11*
X260000000Y-198007200D02*
X260000000Y-200007200D01*
D10*
D11*
X36065476Y-199595295D02*
X35322619Y-199595295D01*
X35694047Y-199595295D02*
X35694047Y-198295295D01*
X35570238Y-198481009D01*
X35446428Y-198604819D01*
X35322619Y-198666723D01*
D10*
D11*
X85322619Y-198419104D02*
X85384523Y-198357200D01*
X85508333Y-198295295D01*
X85817857Y-198295295D01*
X85941666Y-198357200D01*
X86003571Y-198419104D01*
X86065476Y-198542914D01*
X86065476Y-198666723D01*
X86003571Y-198852438D01*
X85260714Y-199595295D01*
X86065476Y-199595295D01*
D10*
D11*
X135260714Y-198295295D02*
X136065476Y-198295295D01*
X135632142Y-198790533D01*
X135817857Y-198790533D01*
X135941666Y-198852438D01*
X136003571Y-198914342D01*
X136065476Y-199038152D01*
X136065476Y-199347676D01*
X136003571Y-199471485D01*
X135941666Y-199533390D01*
X135817857Y-199595295D01*
X135446428Y-199595295D01*
X135322619Y-199533390D01*
X135260714Y-199471485D01*
D10*
D11*
X185941666Y-198728628D02*
X185941666Y-199595295D01*
X185632142Y-198233390D02*
X185322619Y-199161961D01*
X186127380Y-199161961D01*
D10*
D11*
X236003571Y-198295295D02*
X235384523Y-198295295D01*
X235322619Y-198914342D01*
X235384523Y-198852438D01*
X235508333Y-198790533D01*
X235817857Y-198790533D01*
X235941666Y-198852438D01*
X236003571Y-198914342D01*
X236065476Y-199038152D01*
X236065476Y-199347676D01*
X236003571Y-199471485D01*
X235941666Y-199533390D01*
X235817857Y-199595295D01*
X235508333Y-199595295D01*
X235384523Y-199533390D01*
X235322619Y-199471485D01*
D10*
D11*
X285941666Y-198295295D02*
X285694047Y-198295295D01*
X285570238Y-198357200D01*
X285508333Y-198419104D01*
X285384523Y-198604819D01*
X285322619Y-198852438D01*
X285322619Y-199347676D01*
X285384523Y-199471485D01*
X285446428Y-199533390D01*
X285570238Y-199595295D01*
X285817857Y-199595295D01*
X285941666Y-199533390D01*
X286003571Y-199471485D01*
X286065476Y-199347676D01*
X286065476Y-199038152D01*
X286003571Y-198914342D01*
X285941666Y-198852438D01*
X285817857Y-198790533D01*
X285570238Y-198790533D01*
X285446428Y-198852438D01*
X285384523Y-198914342D01*
X285322619Y-199038152D01*
D10*
D11*
X10000000Y-60000000D02*
X12000000Y-60000000D01*
D10*
D11*
X10000000Y-110000000D02*
X12000000Y-110000000D01*
D10*
D11*
X10000000Y-160000000D02*
X12000000Y-160000000D01*
D10*
D11*
X10690476Y-35216666D02*
X11309523Y-35216666D01*
X10566666Y-35588095D02*
X11000000Y-34288095D01*
X11433333Y-35588095D01*
D10*
D11*
X11092857Y-84907142D02*
X11278571Y-84969047D01*
X11340476Y-85030952D01*
X11402380Y-85154761D01*
X11402380Y-85340476D01*
X11340476Y-85464285D01*
X11278571Y-85526190D01*
X11154761Y-85588095D01*
X10659523Y-85588095D01*
X10659523Y-84288095D01*
X11092857Y-84288095D01*
X11216666Y-84350000D01*
X11278571Y-84411904D01*
X11340476Y-84535714D01*
X11340476Y-84659523D01*
X11278571Y-84783333D01*
X11216666Y-84845238D01*
X11092857Y-84907142D01*
X10659523Y-84907142D01*
D10*
D11*
X11402380Y-135464285D02*
X11340476Y-135526190D01*
X11154761Y-135588095D01*
X11030952Y-135588095D01*
X10845238Y-135526190D01*
X10721428Y-135402380D01*
X10659523Y-135278571D01*
X10597619Y-135030952D01*
X10597619Y-134845238D01*
X10659523Y-134597619D01*
X10721428Y-134473809D01*
X10845238Y-134350000D01*
X11030952Y-134288095D01*
X11154761Y-134288095D01*
X11340476Y-134350000D01*
X11402380Y-134411904D01*
D10*
D11*
X10659523Y-185588095D02*
X10659523Y-184288095D01*
X10969047Y-184288095D01*
X11154761Y-184350000D01*
X11278571Y-184473809D01*
X11340476Y-184597619D01*
X11402380Y-184845238D01*
X11402380Y-185030952D01*
X11340476Y-185278571D01*
X11278571Y-185402380D01*
X11154761Y-185526190D01*
X10969047Y-185588095D01*
X10659523Y-185588095D01*
D10*
D11*
X287002200Y-60000000D02*
X285002200Y-60000000D01*
D10*
D11*
X287002200Y-110000000D02*
X285002200Y-110000000D01*
D10*
D11*
X287002200Y-160000000D02*
X285002200Y-160000000D01*
D10*
D11*
X285692676Y-35216666D02*
X286311723Y-35216666D01*
X285568866Y-35588095D02*
X286002200Y-34288095D01*
X286435533Y-35588095D01*
D10*
D11*
X286095057Y-84907142D02*
X286280771Y-84969047D01*
X286342676Y-85030952D01*
X286404580Y-85154761D01*
X286404580Y-85340476D01*
X286342676Y-85464285D01*
X286280771Y-85526190D01*
X286156961Y-85588095D01*
X285661723Y-85588095D01*
X285661723Y-84288095D01*
X286095057Y-84288095D01*
X286218866Y-84350000D01*
X286280771Y-84411904D01*
X286342676Y-84535714D01*
X286342676Y-84659523D01*
X286280771Y-84783333D01*
X286218866Y-84845238D01*
X286095057Y-84907142D01*
X285661723Y-84907142D01*
D10*
D11*
X286404580Y-135464285D02*
X286342676Y-135526190D01*
X286156961Y-135588095D01*
X286033152Y-135588095D01*
X285847438Y-135526190D01*
X285723628Y-135402380D01*
X285661723Y-135278571D01*
X285599819Y-135030952D01*
X285599819Y-134845238D01*
X285661723Y-134597619D01*
X285723628Y-134473809D01*
X285847438Y-134350000D01*
X286033152Y-134288095D01*
X286156961Y-134288095D01*
X286342676Y-134350000D01*
X286404580Y-134411904D01*
D10*
D11*
X285661723Y-185588095D02*
X285661723Y-184288095D01*
X285971247Y-184288095D01*
X286156961Y-184350000D01*
X286280771Y-184473809D01*
X286342676Y-184597619D01*
X286404580Y-184845238D01*
X286404580Y-185030952D01*
X286342676Y-185278571D01*
X286280771Y-185402380D01*
X286156961Y-185526190D01*
X285971247Y-185588095D01*
X285661723Y-185588095D01*
D10*
D11*
X200434342Y-193785771D02*
X200434342Y-192285771D01*
X200791485Y-192285771D01*
X201005771Y-192357200D01*
X201148628Y-192500057D01*
X201220057Y-192642914D01*
X201291485Y-192928628D01*
X201291485Y-193142914D01*
X201220057Y-193428628D01*
X201148628Y-193571485D01*
X201005771Y-193714342D01*
X200791485Y-193785771D01*
X200434342Y-193785771D01*
X202577200Y-193785771D02*
X202577200Y-193000057D01*
X202505771Y-192857200D01*
X202362914Y-192785771D01*
X202077200Y-192785771D01*
X201934342Y-192857200D01*
X202577200Y-193714342D02*
X202434342Y-193785771D01*
X202077200Y-193785771D01*
X201934342Y-193714342D01*
X201862914Y-193571485D01*
X201862914Y-193428628D01*
X201934342Y-193285771D01*
X202077200Y-193214342D01*
X202434342Y-193214342D01*
X202577200Y-193142914D01*
X203077200Y-192785771D02*
X203648628Y-192785771D01*
X203291485Y-192285771D02*
X203291485Y-193571485D01*
X203362914Y-193714342D01*
X203505771Y-193785771D01*
X203648628Y-193785771D01*
X204720057Y-193714342D02*
X204577200Y-193785771D01*
X204291485Y-193785771D01*
X204148628Y-193714342D01*
X204077200Y-193571485D01*
X204077200Y-193000057D01*
X204148628Y-192857200D01*
X204291485Y-192785771D01*
X204577200Y-192785771D01*
X204720057Y-192857200D01*
X204791485Y-193000057D01*
X204791485Y-193142914D01*
X204077200Y-193285771D01*
X205434342Y-193642914D02*
X205505771Y-193714342D01*
X205434342Y-193785771D01*
X205362914Y-193714342D01*
X205434342Y-193642914D01*
X205434342Y-193785771D01*
X205434342Y-192857200D02*
X205505771Y-192928628D01*
X205434342Y-193000057D01*
X205362914Y-192928628D01*
X205434342Y-192857200D01*
X205434342Y-193000057D01*
D10*
D11*
X177002200Y-194507200D02*
X285002200Y-194507200D01*
D10*
D11*
X178434342Y-196585771D02*
X178434342Y-195085771D01*
X179291485Y-196585771D02*
X178648628Y-195728628D01*
X179291485Y-195085771D02*
X178434342Y-195942914D01*
X179934342Y-196585771D02*
X179934342Y-195585771D01*
X179934342Y-195085771D02*
X179862914Y-195157200D01*
X179934342Y-195228628D01*
X180005771Y-195157200D01*
X179934342Y-195085771D01*
X179934342Y-195228628D01*
X181505771Y-196442914D02*
X181434342Y-196514342D01*
X181220057Y-196585771D01*
X181077200Y-196585771D01*
X180862914Y-196514342D01*
X180720057Y-196371485D01*
X180648628Y-196228628D01*
X180577200Y-195942914D01*
X180577200Y-195728628D01*
X180648628Y-195442914D01*
X180720057Y-195300057D01*
X180862914Y-195157200D01*
X181077200Y-195085771D01*
X181220057Y-195085771D01*
X181434342Y-195157200D01*
X181505771Y-195228628D01*
X182791485Y-196585771D02*
X182791485Y-195800057D01*
X182720057Y-195657200D01*
X182577200Y-195585771D01*
X182291485Y-195585771D01*
X182148628Y-195657200D01*
X182791485Y-196514342D02*
X182648628Y-196585771D01*
X182291485Y-196585771D01*
X182148628Y-196514342D01*
X182077200Y-196371485D01*
X182077200Y-196228628D01*
X182148628Y-196085771D01*
X182291485Y-196014342D01*
X182648628Y-196014342D01*
X182791485Y-195942914D01*
X184148628Y-196585771D02*
X184148628Y-195085771D01*
X184148628Y-196514342D02*
X184005771Y-196585771D01*
X183720057Y-196585771D01*
X183577200Y-196514342D01*
X183505771Y-196442914D01*
X183434342Y-196300057D01*
X183434342Y-195871485D01*
X183505771Y-195728628D01*
X183577200Y-195657200D01*
X183720057Y-195585771D01*
X184005771Y-195585771D01*
X184148628Y-195657200D01*
X186005771Y-195800057D02*
X186505771Y-195800057D01*
X186720057Y-196585771D02*
X186005771Y-196585771D01*
X186005771Y-195085771D01*
X186720057Y-195085771D01*
X187362914Y-196442914D02*
X187434342Y-196514342D01*
X187362914Y-196585771D01*
X187291485Y-196514342D01*
X187362914Y-196442914D01*
X187362914Y-196585771D01*
X188077200Y-196585771D02*
X188077200Y-195085771D01*
X188434342Y-195085771D01*
X188648628Y-195157200D01*
X188791485Y-195300057D01*
X188862914Y-195442914D01*
X188934342Y-195728628D01*
X188934342Y-195942914D01*
X188862914Y-196228628D01*
X188791485Y-196371485D01*
X188648628Y-196514342D01*
X188434342Y-196585771D01*
X188077200Y-196585771D01*
X189577200Y-196442914D02*
X189648628Y-196514342D01*
X189577200Y-196585771D01*
X189505771Y-196514342D01*
X189577200Y-196442914D01*
X189577200Y-196585771D01*
X190220057Y-196157200D02*
X190934342Y-196157200D01*
X190077200Y-196585771D02*
X190577200Y-195085771D01*
X191077200Y-196585771D01*
X191577200Y-196442914D02*
X191648628Y-196514342D01*
X191577200Y-196585771D01*
X191505771Y-196514342D01*
X191577200Y-196442914D01*
X191577200Y-196585771D01*
X194577200Y-196585771D02*
X194577200Y-195085771D01*
X194720057Y-196014342D02*
X195148628Y-196585771D01*
X195148628Y-195585771D02*
X194577200Y-196157200D01*
X195791485Y-196585771D02*
X195791485Y-195585771D01*
X195791485Y-195085771D02*
X195720057Y-195157200D01*
X195791485Y-195228628D01*
X195862914Y-195157200D01*
X195791485Y-195085771D01*
X195791485Y-195228628D01*
X197148628Y-196514342D02*
X197005771Y-196585771D01*
X196720057Y-196585771D01*
X196577200Y-196514342D01*
X196505771Y-196442914D01*
X196434342Y-196300057D01*
X196434342Y-195871485D01*
X196505771Y-195728628D01*
X196577200Y-195657200D01*
X196720057Y-195585771D01*
X197005771Y-195585771D01*
X197148628Y-195657200D01*
X198434342Y-196585771D02*
X198434342Y-195800057D01*
X198362914Y-195657200D01*
X198220057Y-195585771D01*
X197934342Y-195585771D01*
X197791485Y-195657200D01*
X198434342Y-196514342D02*
X198291485Y-196585771D01*
X197934342Y-196585771D01*
X197791485Y-196514342D01*
X197720057Y-196371485D01*
X197720057Y-196228628D01*
X197791485Y-196085771D01*
X197934342Y-196014342D01*
X198291485Y-196014342D01*
X198434342Y-195942914D01*
X199791485Y-196585771D02*
X199791485Y-195085771D01*
X199791485Y-196514342D02*
X199648628Y-196585771D01*
X199362914Y-196585771D01*
X199220057Y-196514342D01*
X199148628Y-196442914D01*
X199077200Y-196300057D01*
X199077200Y-195871485D01*
X199148628Y-195728628D01*
X199220057Y-195657200D01*
X199362914Y-195585771D01*
X199648628Y-195585771D01*
X199791485Y-195657200D01*
X202077200Y-197157200D02*
X202005771Y-197085771D01*
X201862914Y-196871485D01*
X201791485Y-196728628D01*
X201720057Y-196514342D01*
X201648628Y-196157200D01*
X201648628Y-195871485D01*
X201720057Y-195514342D01*
X201791485Y-195300057D01*
X201862914Y-195157200D01*
X202005771Y-194942914D01*
X202077200Y-194871485D01*
X203362914Y-195085771D02*
X202648628Y-195085771D01*
X202577200Y-195800057D01*
X202648628Y-195728628D01*
X202791485Y-195657200D01*
X203148628Y-195657200D01*
X203291485Y-195728628D01*
X203362914Y-195800057D01*
X203434342Y-195942914D01*
X203434342Y-196300057D01*
X203362914Y-196442914D01*
X203291485Y-196514342D01*
X203148628Y-196585771D01*
X202791485Y-196585771D01*
X202648628Y-196514342D01*
X202577200Y-196442914D01*
X204077200Y-196442914D02*
X204148628Y-196514342D01*
X204077200Y-196585771D01*
X204005771Y-196514342D01*
X204077200Y-196442914D01*
X204077200Y-196585771D01*
X205577200Y-196585771D02*
X204720057Y-196585771D01*
X205148628Y-196585771D02*
X205148628Y-195085771D01*
X205005771Y-195300057D01*
X204862914Y-195442914D01*
X204720057Y-195514342D01*
X206220057Y-196442914D02*
X206291485Y-196514342D01*
X206220057Y-196585771D01*
X206148628Y-196514342D01*
X206220057Y-196442914D01*
X206220057Y-196585771D01*
X207720057Y-196585771D02*
X206862914Y-196585771D01*
X207291485Y-196585771D02*
X207291485Y-195085771D01*
X207148628Y-195300057D01*
X207005771Y-195442914D01*
X206862914Y-195514342D01*
X208648628Y-195085771D02*
X208791485Y-195085771D01*
X208934342Y-195157200D01*
X209005771Y-195228628D01*
X209077200Y-195371485D01*
X209148628Y-195657200D01*
X209148628Y-196014342D01*
X209077200Y-196300057D01*
X209005771Y-196442914D01*
X208934342Y-196514342D01*
X208791485Y-196585771D01*
X208648628Y-196585771D01*
X208505771Y-196514342D01*
X208434342Y-196442914D01*
X208362914Y-196300057D01*
X208291485Y-196014342D01*
X208291485Y-195657200D01*
X208362914Y-195371485D01*
X208434342Y-195228628D01*
X208505771Y-195157200D01*
X208648628Y-195085771D01*
X209648628Y-197157200D02*
X209720057Y-197085771D01*
X209862914Y-196871485D01*
X209934342Y-196728628D01*
X210005771Y-196514342D01*
X210077200Y-196157200D01*
X210077200Y-195871485D01*
X210005771Y-195514342D01*
X209934342Y-195300057D01*
X209862914Y-195157200D01*
X209720057Y-194942914D01*
X209648628Y-194871485D01*
X210791485Y-196014342D02*
X211934342Y-196014342D01*
X213434342Y-196585771D02*
X212577200Y-196585771D01*
X213005771Y-196585771D02*
X213005771Y-195085771D01*
X212862914Y-195300057D01*
X212720057Y-195442914D01*
X212577200Y-195514342D01*
D10*
D11*
X177002200Y-191507200D02*
X285002200Y-191507200D01*
D10*
D12*
X264411485Y-193785771D02*
X263911485Y-193071485D01*
X263554342Y-193785771D02*
X263554342Y-192285771D01*
X264125771Y-192285771D01*
X264268628Y-192357200D01*
X264340057Y-192428628D01*
X264411485Y-192571485D01*
X264411485Y-192785771D01*
X264340057Y-192928628D01*
X264268628Y-193000057D01*
X264125771Y-193071485D01*
X263554342Y-193071485D01*
X265625771Y-193714342D02*
X265482914Y-193785771D01*
X265197200Y-193785771D01*
X265054342Y-193714342D01*
X264982914Y-193571485D01*
X264982914Y-193000057D01*
X265054342Y-192857200D01*
X265197200Y-192785771D01*
X265482914Y-192785771D01*
X265625771Y-192857200D01*
X265697200Y-193000057D01*
X265697200Y-193142914D01*
X264982914Y-193285771D01*
X266197200Y-192785771D02*
X266554342Y-193785771D01*
X266911485Y-192785771D01*
X267482914Y-193642914D02*
X267554342Y-193714342D01*
X267482914Y-193785771D01*
X267411485Y-193714342D01*
X267482914Y-193642914D01*
X267482914Y-193785771D01*
X267482914Y-192857200D02*
X267554342Y-192928628D01*
X267482914Y-193000057D01*
X267411485Y-192928628D01*
X267482914Y-192857200D01*
X267482914Y-193000057D01*
D10*
D11*
X178362914Y-193714342D02*
X178577200Y-193785771D01*
X178934342Y-193785771D01*
X179077200Y-193714342D01*
X179148628Y-193642914D01*
X179220057Y-193500057D01*
X179220057Y-193357200D01*
X179148628Y-193214342D01*
X179077200Y-193142914D01*
X178934342Y-193071485D01*
X178648628Y-193000057D01*
X178505771Y-192928628D01*
X178434342Y-192857200D01*
X178362914Y-192714342D01*
X178362914Y-192571485D01*
X178434342Y-192428628D01*
X178505771Y-192357200D01*
X178648628Y-192285771D01*
X179005771Y-192285771D01*
X179220057Y-192357200D01*
X179862914Y-193785771D02*
X179862914Y-192785771D01*
X179862914Y-192285771D02*
X179791485Y-192357200D01*
X179862914Y-192428628D01*
X179934342Y-192357200D01*
X179862914Y-192285771D01*
X179862914Y-192428628D01*
X180434342Y-192785771D02*
X181220057Y-192785771D01*
X180434342Y-193785771D01*
X181220057Y-193785771D01*
X182362914Y-193714342D02*
X182220057Y-193785771D01*
X181934342Y-193785771D01*
X181791485Y-193714342D01*
X181720057Y-193571485D01*
X181720057Y-193000057D01*
X181791485Y-192857200D01*
X181934342Y-192785771D01*
X182220057Y-192785771D01*
X182362914Y-192857200D01*
X182434342Y-193000057D01*
X182434342Y-193142914D01*
X181720057Y-193285771D01*
X183077200Y-193642914D02*
X183148628Y-193714342D01*
X183077200Y-193785771D01*
X183005771Y-193714342D01*
X183077200Y-193642914D01*
X183077200Y-193785771D01*
X183077200Y-192857200D02*
X183148628Y-192928628D01*
X183077200Y-193000057D01*
X183005771Y-192928628D01*
X183077200Y-192857200D01*
X183077200Y-193000057D01*
X184862914Y-193357200D02*
X185577200Y-193357200D01*
X184720057Y-193785771D02*
X185220057Y-192285771D01*
X185720057Y-193785771D01*
X186862914Y-192785771D02*
X186862914Y-193785771D01*
X186505771Y-192214342D02*
X186148628Y-193285771D01*
X187077200Y-193285771D01*
D10*
D11*
X263434342Y-196585771D02*
X263434342Y-195085771D01*
X264791485Y-196585771D02*
X264791485Y-195085771D01*
X264791485Y-196514342D02*
X264648628Y-196585771D01*
X264362914Y-196585771D01*
X264220057Y-196514342D01*
X264148628Y-196442914D01*
X264077200Y-196300057D01*
X264077200Y-195871485D01*
X264148628Y-195728628D01*
X264220057Y-195657200D01*
X264362914Y-195585771D01*
X264648628Y-195585771D01*
X264791485Y-195657200D01*
X265505771Y-196442914D02*
X265577200Y-196514342D01*
X265505771Y-196585771D01*
X265434342Y-196514342D01*
X265505771Y-196442914D01*
X265505771Y-196585771D01*
X265505771Y-195657200D02*
X265577200Y-195728628D01*
X265505771Y-195800057D01*
X265434342Y-195728628D01*
X265505771Y-195657200D01*
X265505771Y-195800057D01*
X268148628Y-196585771D02*
X267291485Y-196585771D01*
X267720057Y-196585771D02*
X267720057Y-195085771D01*
X267577200Y-195300057D01*
X267434342Y-195442914D01*
X267291485Y-195514342D01*
X269862914Y-195014342D02*
X268577200Y-196942914D01*
X271148628Y-196585771D02*
X270291485Y-196585771D01*
X270720057Y-196585771D02*
X270720057Y-195085771D01*
X270577200Y-195300057D01*
X270434342Y-195442914D01*
X270291485Y-195514342D01*
D10*
D11*
X177002200Y-187507200D02*
X285002200Y-187507200D01*
D10*
D13*
X178714580Y-188211961D02*
X179857438Y-188211961D01*
X179036009Y-190211961D02*
X179286009Y-188211961D01*
X180274104Y-190211961D02*
X180440771Y-188878628D01*
X180524104Y-188211961D02*
X180416961Y-188307200D01*
X180500295Y-188402438D01*
X180607438Y-188307200D01*
X180524104Y-188211961D01*
X180500295Y-188402438D01*
X181107438Y-188878628D02*
X181869342Y-188878628D01*
X181476485Y-188211961D02*
X181262200Y-189926247D01*
X181333628Y-190116723D01*
X181512200Y-190211961D01*
X181702676Y-190211961D01*
X182655057Y-190211961D02*
X182476485Y-190116723D01*
X182405057Y-189926247D01*
X182619342Y-188211961D01*
X184190771Y-190116723D02*
X183988390Y-190211961D01*
X183607438Y-190211961D01*
X183428866Y-190116723D01*
X183357438Y-189926247D01*
X183452676Y-189164342D01*
X183571723Y-188973866D01*
X183774104Y-188878628D01*
X184155057Y-188878628D01*
X184333628Y-188973866D01*
X184405057Y-189164342D01*
X184381247Y-189354819D01*
X183405057Y-189545295D01*
X185155057Y-190021485D02*
X185238390Y-190116723D01*
X185131247Y-190211961D01*
X185047914Y-190116723D01*
X185155057Y-190021485D01*
X185131247Y-190211961D01*
X185286009Y-188973866D02*
X185369342Y-189069104D01*
X185262200Y-189164342D01*
X185178866Y-189069104D01*
X185286009Y-188973866D01*
X185262200Y-189164342D01*
D10*
D11*
X178934342Y-185600057D02*
X178434342Y-185600057D01*
X178434342Y-186385771D02*
X178434342Y-184885771D01*
X179148628Y-184885771D01*
X179720057Y-186385771D02*
X179720057Y-185385771D01*
X179720057Y-184885771D02*
X179648628Y-184957200D01*
X179720057Y-185028628D01*
X179791485Y-184957200D01*
X179720057Y-184885771D01*
X179720057Y-185028628D01*
X180648628Y-186385771D02*
X180505771Y-186314342D01*
X180434342Y-186171485D01*
X180434342Y-184885771D01*
X181791485Y-186314342D02*
X181648628Y-186385771D01*
X181362914Y-186385771D01*
X181220057Y-186314342D01*
X181148628Y-186171485D01*
X181148628Y-185600057D01*
X181220057Y-185457200D01*
X181362914Y-185385771D01*
X181648628Y-185385771D01*
X181791485Y-185457200D01*
X181862914Y-185600057D01*
X181862914Y-185742914D01*
X181148628Y-185885771D01*
X182505771Y-186242914D02*
X182577200Y-186314342D01*
X182505771Y-186385771D01*
X182434342Y-186314342D01*
X182505771Y-186242914D01*
X182505771Y-186385771D01*
X182505771Y-185457200D02*
X182577200Y-185528628D01*
X182505771Y-185600057D01*
X182434342Y-185528628D01*
X182505771Y-185457200D01*
X182505771Y-185600057D01*
X184148628Y-185385771D02*
X184720057Y-185385771D01*
X184362914Y-186385771D02*
X184362914Y-185100057D01*
X184434342Y-184957200D01*
X184577200Y-184885771D01*
X184720057Y-184885771D01*
X185862914Y-186385771D02*
X185862914Y-185600057D01*
X185791485Y-185457200D01*
X185648628Y-185385771D01*
X185362914Y-185385771D01*
X185220057Y-185457200D01*
X185862914Y-186314342D02*
X185720057Y-186385771D01*
X185362914Y-186385771D01*
X185220057Y-186314342D01*
X185148628Y-186171485D01*
X185148628Y-186028628D01*
X185220057Y-185885771D01*
X185362914Y-185814342D01*
X185720057Y-185814342D01*
X185862914Y-185742914D01*
X186577200Y-185385771D02*
X186577200Y-186385771D01*
X186577200Y-185528628D02*
X186648628Y-185457200D01*
X186791485Y-185385771D01*
X187005771Y-185385771D01*
X187148628Y-185457200D01*
X187220057Y-185600057D01*
X187220057Y-186385771D01*
X189720057Y-186385771D02*
X189720057Y-184885771D01*
X189720057Y-186314342D02*
X189577200Y-186385771D01*
X189291485Y-186385771D01*
X189148628Y-186314342D01*
X189077200Y-186242914D01*
X189005771Y-186100057D01*
X189005771Y-185671485D01*
X189077200Y-185528628D01*
X189148628Y-185457200D01*
X189291485Y-185385771D01*
X189577200Y-185385771D01*
X189720057Y-185457200D01*
X190434342Y-186385771D02*
X190434342Y-185385771D01*
X190434342Y-184885771D02*
X190362914Y-184957200D01*
X190434342Y-185028628D01*
X190505771Y-184957200D01*
X190434342Y-184885771D01*
X190434342Y-185028628D01*
X191148628Y-186385771D02*
X191148628Y-185385771D01*
X191148628Y-185528628D02*
X191220057Y-185457200D01*
X191362914Y-185385771D01*
X191577200Y-185385771D01*
X191720057Y-185457200D01*
X191791485Y-185600057D01*
X191791485Y-186385771D01*
X191791485Y-185600057D02*
X191862914Y-185457200D01*
X192005771Y-185385771D01*
X192220057Y-185385771D01*
X192362914Y-185457200D01*
X192434342Y-185600057D01*
X192434342Y-186385771D01*
X193148628Y-186385771D02*
X193148628Y-185385771D01*
X193148628Y-185528628D02*
X193220057Y-185457200D01*
X193362914Y-185385771D01*
X193577200Y-185385771D01*
X193720057Y-185457200D01*
X193791485Y-185600057D01*
X193791485Y-186385771D01*
X193791485Y-185600057D02*
X193862914Y-185457200D01*
X194005771Y-185385771D01*
X194220057Y-185385771D01*
X194362914Y-185457200D01*
X194434342Y-185600057D01*
X194434342Y-186385771D01*
X195720057Y-186314342D02*
X195577200Y-186385771D01*
X195291485Y-186385771D01*
X195148628Y-186314342D01*
X195077200Y-186171485D01*
X195077200Y-185600057D01*
X195148628Y-185457200D01*
X195291485Y-185385771D01*
X195577200Y-185385771D01*
X195720057Y-185457200D01*
X195791485Y-185600057D01*
X195791485Y-185742914D01*
X195077200Y-185885771D01*
X196434342Y-186385771D02*
X196434342Y-185385771D01*
X196434342Y-185671485D02*
X196505771Y-185528628D01*
X196577200Y-185457200D01*
X196720057Y-185385771D01*
X196862914Y-185385771D01*
X197362914Y-186242914D02*
X197434342Y-186314342D01*
X197362914Y-186385771D01*
X197291485Y-186314342D01*
X197362914Y-186242914D01*
X197362914Y-186385771D01*
X198077200Y-186385771D02*
X198077200Y-184885771D01*
X198220057Y-185814342D02*
X198648628Y-186385771D01*
X198648628Y-185385771D02*
X198077200Y-185957200D01*
X199291485Y-186385771D02*
X199291485Y-185385771D01*
X199291485Y-184885771D02*
X199220057Y-184957200D01*
X199291485Y-185028628D01*
X199362914Y-184957200D01*
X199291485Y-184885771D01*
X199291485Y-185028628D01*
X200648628Y-186314342D02*
X200505771Y-186385771D01*
X200220057Y-186385771D01*
X200077200Y-186314342D01*
X200005771Y-186242914D01*
X199934342Y-186100057D01*
X199934342Y-185671485D01*
X200005771Y-185528628D01*
X200077200Y-185457200D01*
X200220057Y-185385771D01*
X200505771Y-185385771D01*
X200648628Y-185457200D01*
X201934342Y-186385771D02*
X201934342Y-185600057D01*
X201862914Y-185457200D01*
X201720057Y-185385771D01*
X201434342Y-185385771D01*
X201291485Y-185457200D01*
X201934342Y-186314342D02*
X201791485Y-186385771D01*
X201434342Y-186385771D01*
X201291485Y-186314342D01*
X201220057Y-186171485D01*
X201220057Y-186028628D01*
X201291485Y-185885771D01*
X201434342Y-185814342D01*
X201791485Y-185814342D01*
X201934342Y-185742914D01*
X203291485Y-186385771D02*
X203291485Y-184885771D01*
X203291485Y-186314342D02*
X203148628Y-186385771D01*
X202862914Y-186385771D01*
X202720057Y-186314342D01*
X202648628Y-186242914D01*
X202577200Y-186100057D01*
X202577200Y-185671485D01*
X202648628Y-185528628D01*
X202720057Y-185457200D01*
X202862914Y-185385771D01*
X203148628Y-185385771D01*
X203291485Y-185457200D01*
X203648628Y-186528628D02*
X204791485Y-186528628D01*
X205148628Y-185385771D02*
X205148628Y-186885771D01*
X205148628Y-185457200D02*
X205291485Y-185385771D01*
X205577200Y-185385771D01*
X205720057Y-185457200D01*
X205791485Y-185528628D01*
X205862914Y-185671485D01*
X205862914Y-186100057D01*
X205791485Y-186242914D01*
X205720057Y-186314342D01*
X205577200Y-186385771D01*
X205291485Y-186385771D01*
X205148628Y-186314342D01*
X207148628Y-186314342D02*
X207005771Y-186385771D01*
X206720057Y-186385771D01*
X206577200Y-186314342D01*
X206505771Y-186242914D01*
X206434342Y-186100057D01*
X206434342Y-185671485D01*
X206505771Y-185528628D01*
X206577200Y-185457200D01*
X206720057Y-185385771D01*
X207005771Y-185385771D01*
X207148628Y-185457200D01*
X207791485Y-186385771D02*
X207791485Y-184885771D01*
X207791485Y-185457200D02*
X207934342Y-185385771D01*
X208220057Y-185385771D01*
X208362914Y-185457200D01*
X208434342Y-185528628D01*
X208505771Y-185671485D01*
X208505771Y-186100057D01*
X208434342Y-186242914D01*
X208362914Y-186314342D01*
X208220057Y-186385771D01*
X207934342Y-186385771D01*
X207791485Y-186314342D01*
D10*
D11*
X177002200Y-181507200D02*
X285002200Y-181507200D01*
D10*
D11*
X178362914Y-183614342D02*
X178577200Y-183685771D01*
X178934342Y-183685771D01*
X179077200Y-183614342D01*
X179148628Y-183542914D01*
X179220057Y-183400057D01*
X179220057Y-183257200D01*
X179148628Y-183114342D01*
X179077200Y-183042914D01*
X178934342Y-182971485D01*
X178648628Y-182900057D01*
X178505771Y-182828628D01*
X178434342Y-182757200D01*
X178362914Y-182614342D01*
X178362914Y-182471485D01*
X178434342Y-182328628D01*
X178505771Y-182257200D01*
X178648628Y-182185771D01*
X179005771Y-182185771D01*
X179220057Y-182257200D01*
X179862914Y-183685771D02*
X179862914Y-182185771D01*
X180505771Y-183685771D02*
X180505771Y-182900057D01*
X180434342Y-182757200D01*
X180291485Y-182685771D01*
X180077200Y-182685771D01*
X179934342Y-182757200D01*
X179862914Y-182828628D01*
X181791485Y-183614342D02*
X181648628Y-183685771D01*
X181362914Y-183685771D01*
X181220057Y-183614342D01*
X181148628Y-183471485D01*
X181148628Y-182900057D01*
X181220057Y-182757200D01*
X181362914Y-182685771D01*
X181648628Y-182685771D01*
X181791485Y-182757200D01*
X181862914Y-182900057D01*
X181862914Y-183042914D01*
X181148628Y-183185771D01*
X183077200Y-183614342D02*
X182934342Y-183685771D01*
X182648628Y-183685771D01*
X182505771Y-183614342D01*
X182434342Y-183471485D01*
X182434342Y-182900057D01*
X182505771Y-182757200D01*
X182648628Y-182685771D01*
X182934342Y-182685771D01*
X183077200Y-182757200D01*
X183148628Y-182900057D01*
X183148628Y-183042914D01*
X182434342Y-183185771D01*
X183577200Y-182685771D02*
X184148628Y-182685771D01*
X183791485Y-182185771D02*
X183791485Y-183471485D01*
X183862914Y-183614342D01*
X184005771Y-183685771D01*
X184148628Y-183685771D01*
X184648628Y-183542914D02*
X184720057Y-183614342D01*
X184648628Y-183685771D01*
X184577200Y-183614342D01*
X184648628Y-183542914D01*
X184648628Y-183685771D01*
X184648628Y-182757200D02*
X184720057Y-182828628D01*
X184648628Y-182900057D01*
X184577200Y-182828628D01*
X184648628Y-182757200D01*
X184648628Y-182900057D01*
D10*
D11*
X197002200Y-191507200D02*
X197002200Y-194507200D01*
D10*
D11*
X261002200Y-191507200D02*
X261002200Y-198007200D01*
D14*
%TO.C,Battery1*%
X114282000Y-59984000D02*
X114282000Y-64984000D01*
X114832000Y-65534000D02*
X117282000Y-65534000D01*
X117282000Y-59434000D02*
X114832000Y-59434000D01*
X114832000Y-65534000D02*
G75*
G02*
X114282000Y-64984000I0J550000D01*
G01*
X114832000Y-59434000D02*
G75*
G03*
X114282000Y-59984000I0J-550000D01*
G01*
X117986769Y-58940515D02*
G75*
G02*
X117282000Y-59434000I-704769J256515D01*
G01*
X117986769Y-66027485D02*
G75*
G03*
X117282000Y-65534000I-704769J-256515D01*
G01*
X145531738Y-62499231D02*
G75*
G03*
X117982000Y-58964000I-13999738J15231D01*
G01*
X145531738Y-62468769D02*
G75*
G02*
X117982000Y-66004000I-13999738J-15231D01*
G01*
%TO.C,C2*%
X108613500Y-33175500D02*
X108988500Y-33175500D01*
X108801000Y-33363000D02*
X108801000Y-32988000D01*
X111296000Y-32558563D02*
X111996000Y-31858563D01*
X109176000Y-32558563D02*
X108476000Y-31858563D01*
X111996000Y-31858563D02*
X111996000Y-29228000D01*
X108476000Y-31858563D02*
X108476000Y-29228000D01*
X108476000Y-29228000D02*
X109176000Y-29228000D01*
X111996000Y-29228000D02*
X111296000Y-29228000D01*
%TO.C,C1*%
X127917500Y-20983500D02*
X128292500Y-20983500D01*
X128105000Y-21171000D02*
X128105000Y-20796000D01*
X130600000Y-20366563D02*
X131300000Y-19666563D01*
X128480000Y-20366563D02*
X127780000Y-19666563D01*
X131300000Y-19666563D02*
X131300000Y-17036000D01*
X127780000Y-19666563D02*
X127780000Y-17036000D01*
X127780000Y-17036000D02*
X128480000Y-17036000D01*
X131300000Y-17036000D02*
X130600000Y-17036000D01*
%TO.C,U4*%
X110888000Y-46034000D02*
X112538000Y-46034000D01*
X110888000Y-35754000D02*
X110888000Y-46034000D01*
X116188000Y-35754000D02*
X110888000Y-35754000D01*
X116188000Y-46034000D02*
X116188000Y-35754000D01*
X114538000Y-46034000D02*
X116188000Y-46034000D01*
X112538000Y-46034000D02*
G75*
G02*
X114538000Y-46034000I1000000J0D01*
G01*
%TO.C,R10*%
X103138500Y-46465258D02*
X103138500Y-45990742D01*
X102093500Y-46465258D02*
X102093500Y-45990742D01*
%TO.C,R9*%
X130042327Y-39451258D02*
X130042327Y-38976742D01*
X128997327Y-39451258D02*
X128997327Y-38976742D01*
%TO.C,R8*%
X130042327Y-43461258D02*
X130042327Y-42986742D01*
X128997327Y-43461258D02*
X128997327Y-42986742D01*
%TO.C,R7*%
X130042327Y-47471258D02*
X130042327Y-46996742D01*
X128997327Y-47471258D02*
X128997327Y-46996742D01*
%TO.C,J1*%
X179034000Y-70676000D02*
X179034000Y-70832000D01*
X179034000Y-68360000D02*
X179034000Y-68516000D01*
X181635130Y-70675837D02*
G75*
G02*
X179553039Y-70676000I-1041130J1079837D01*
G01*
X181635130Y-68516163D02*
G75*
G03*
X179553039Y-68516000I-1041130J-1079837D01*
G01*
X182266335Y-70674608D02*
G75*
G02*
X179034000Y-70831516I-1672335J1078608D01*
G01*
X182266335Y-68517392D02*
G75*
G03*
X179034000Y-68360484I-1672335J-1078608D01*
G01*
%TO.C,D6*%
X103414000Y-38036000D02*
X103414000Y-37880000D01*
X103414000Y-40352000D02*
X103414000Y-40196000D01*
X100812870Y-38036163D02*
G75*
G02*
X102894961Y-38036000I1041130J-1079837D01*
G01*
X100812870Y-40195837D02*
G75*
G03*
X102894961Y-40196000I1041130J1079837D01*
G01*
X100181665Y-38037392D02*
G75*
G02*
X103414000Y-37880484I1672335J-1078608D01*
G01*
X100181665Y-40194608D02*
G75*
G03*
X103414000Y-40351516I1672335J1078608D01*
G01*
%TO.C,D5*%
X121974000Y-39532000D02*
X124914000Y-39532000D01*
X121974000Y-39292000D02*
X124914000Y-39292000D01*
X121974000Y-39412000D02*
X124914000Y-39412000D01*
X123444000Y-33852000D02*
X123444000Y-34872000D01*
X123444000Y-41332000D02*
X123444000Y-40312000D01*
X121974000Y-34872000D02*
X121974000Y-40312000D01*
X124914000Y-34872000D02*
X121974000Y-34872000D01*
X124914000Y-40312000D02*
X124914000Y-34872000D01*
X121974000Y-40312000D02*
X124914000Y-40312000D01*
%TO.C,D4*%
X128070000Y-31404000D02*
X131010000Y-31404000D01*
X128070000Y-31164000D02*
X131010000Y-31164000D01*
X128070000Y-31284000D02*
X131010000Y-31284000D01*
X129540000Y-25724000D02*
X129540000Y-26744000D01*
X129540000Y-33204000D02*
X129540000Y-32184000D01*
X128070000Y-26744000D02*
X128070000Y-32184000D01*
X131010000Y-26744000D02*
X128070000Y-26744000D01*
X131010000Y-32184000D02*
X131010000Y-26744000D01*
X128070000Y-32184000D02*
X131010000Y-32184000D01*
D15*
%TO.C,U2*%
X178104800Y-82753200D02*
X178104800Y-83515200D01*
X184607200Y-75742800D02*
X184607200Y-74980800D01*
X184607200Y-83515200D02*
X184607200Y-82753200D01*
X181660800Y-83515200D02*
X184607200Y-83515200D01*
X181051200Y-83515200D02*
X181660800Y-83515200D01*
X178104800Y-83515200D02*
X181051200Y-83515200D01*
X178104800Y-74980800D02*
X178104800Y-75742800D01*
X184607200Y-74980800D02*
X178104800Y-74980800D01*
D10*
X181051200Y-83515200D02*
G75*
G02*
X181660800Y-83515200I304800J0D01*
G01*
D16*
%TO.C,U1*%
X147012000Y-84676000D02*
G75*
G03*
X147012000Y-84676000I-120000J0D01*
G01*
D17*
X155192000Y-91826000D02*
X155192000Y-90876000D01*
X148592000Y-91826000D02*
X155192000Y-91826000D01*
X148592000Y-90876000D02*
X148592000Y-91826000D01*
X155192000Y-82926000D02*
X155192000Y-83876000D01*
X148592000Y-82926000D02*
X155192000Y-82926000D01*
X148592000Y-83876000D02*
X148592000Y-82926000D01*
D12*
%TO.C,D3*%
X160628000Y-92208000D02*
G75*
G03*
X160628000Y-92208000I-100000J0D01*
G01*
D17*
X168208000Y-86768000D02*
X168208000Y-91588000D01*
X168208000Y-91588000D02*
X157928000Y-91588000D01*
X157928000Y-91588000D02*
X157928000Y-86768000D01*
X157928000Y-86768000D02*
X168208000Y-86768000D01*
D14*
%TO.C,J2*%
X220724000Y-72840000D02*
X220724000Y-70190000D01*
X220724000Y-81240000D02*
X220724000Y-78590000D01*
X220724000Y-70190000D02*
X214874000Y-70190000D01*
X220724000Y-77490000D02*
X220724000Y-73990000D01*
X220724000Y-81240000D02*
X214874000Y-81240000D01*
X214874000Y-81240000D02*
X214874000Y-70190000D01*
X220724000Y-78340000D02*
X220724000Y-77740000D01*
X220724000Y-73740000D02*
X220724000Y-73140000D01*
X217424000Y-81740000D02*
X214424000Y-81740000D01*
X214424000Y-81740000D02*
X214424000Y-78740000D01*
%TO.C,U3*%
X201532000Y-73346000D02*
X199882000Y-73346000D01*
X201532000Y-81086000D02*
X201532000Y-73346000D01*
X196232000Y-81086000D02*
X201532000Y-81086000D01*
X196232000Y-73346000D02*
X196232000Y-81086000D01*
X197882000Y-73346000D02*
X196232000Y-73346000D01*
X199882000Y-73346000D02*
G75*
G02*
X197882000Y-73346000I-1000000J0D01*
G01*
%TO.C,R6*%
X209310500Y-77770258D02*
X209310500Y-77295742D01*
X208265500Y-77770258D02*
X208265500Y-77295742D01*
%TO.C,R5*%
X189635641Y-74296000D02*
X189328359Y-74296000D01*
X189635641Y-75056000D02*
X189328359Y-75056000D01*
%TO.C,R4*%
X171181500Y-76470742D02*
X171181500Y-76945258D01*
X172226500Y-76470742D02*
X172226500Y-76945258D01*
%TO.C,R3*%
X171433258Y-81265500D02*
X170958742Y-81265500D01*
X171433258Y-82310500D02*
X170958742Y-82310500D01*
%TO.C,R2*%
X163731641Y-82424000D02*
X163424359Y-82424000D01*
X163731641Y-83184000D02*
X163424359Y-83184000D01*
%TO.C,R1*%
X152020000Y-80110359D02*
X152020000Y-80417641D01*
X152780000Y-80110359D02*
X152780000Y-80417641D01*
%TO.C,D2*%
X175324000Y-87376000D02*
X175324000Y-87376000D01*
X180534000Y-87376000D02*
X175324000Y-87376000D01*
X180534000Y-87376000D02*
X180534000Y-87376000D01*
X175324000Y-87376000D02*
X180534000Y-87376000D01*
X175324000Y-89916000D02*
X175324000Y-89916000D01*
X180534000Y-89916000D02*
X175324000Y-89916000D01*
X180534000Y-89916000D02*
X180534000Y-89916000D01*
X175324000Y-89916000D02*
X180534000Y-89916000D01*
X180534000Y-87086000D02*
X180534000Y-86686000D01*
X181654000Y-87086000D02*
X180534000Y-87086000D01*
X181654000Y-86686000D02*
X181654000Y-87086000D01*
X180534000Y-86686000D02*
X181654000Y-86686000D01*
X180534000Y-90206000D02*
X180534000Y-87086000D01*
X180534000Y-87086000D02*
X184394000Y-87086000D01*
X180534000Y-90206000D02*
X184394000Y-90206000D01*
X184394000Y-87086000D02*
G75*
G02*
X184394000Y-90206000I0J-1560000D01*
G01*
%TO.C,D1*%
X160367000Y-75869000D02*
X162852000Y-75869000D01*
X160367000Y-74499000D02*
X160367000Y-75869000D01*
X162852000Y-74499000D02*
X160367000Y-74499000D01*
%TO.C,Battery1*%
D11*
X112534380Y-57912571D02*
X112677238Y-57960190D01*
X112724857Y-58007809D01*
X112772476Y-58103047D01*
X112772476Y-58245904D01*
X112724857Y-58341142D01*
X112677238Y-58388761D01*
X112582000Y-58436380D01*
X112201047Y-58436380D01*
X112201047Y-57436380D01*
X112534380Y-57436380D01*
X112629619Y-57484000D01*
X112677238Y-57531619D01*
X112724857Y-57626857D01*
X112724857Y-57722095D01*
X112677238Y-57817333D01*
X112629619Y-57864952D01*
X112534380Y-57912571D01*
X112201047Y-57912571D01*
X113629619Y-58436380D02*
X113629619Y-57912571D01*
X113582000Y-57817333D01*
X113486761Y-57769714D01*
X113296285Y-57769714D01*
X113201047Y-57817333D01*
X113629619Y-58388761D02*
X113534380Y-58436380D01*
X113296285Y-58436380D01*
X113201047Y-58388761D01*
X113153428Y-58293523D01*
X113153428Y-58198285D01*
X113201047Y-58103047D01*
X113296285Y-58055428D01*
X113534380Y-58055428D01*
X113629619Y-58007809D01*
X113962952Y-57769714D02*
X114343904Y-57769714D01*
X114105809Y-57436380D02*
X114105809Y-58293523D01*
X114153428Y-58388761D01*
X114248666Y-58436380D01*
X114343904Y-58436380D01*
X114534380Y-57769714D02*
X114915333Y-57769714D01*
X114677238Y-57436380D02*
X114677238Y-58293523D01*
X114724857Y-58388761D01*
X114820095Y-58436380D01*
X114915333Y-58436380D01*
X115629619Y-58388761D02*
X115534380Y-58436380D01*
X115343904Y-58436380D01*
X115248666Y-58388761D01*
X115201047Y-58293523D01*
X115201047Y-57912571D01*
X115248666Y-57817333D01*
X115343904Y-57769714D01*
X115534380Y-57769714D01*
X115629619Y-57817333D01*
X115677238Y-57912571D01*
X115677238Y-58007809D01*
X115201047Y-58103047D01*
X116105809Y-58436380D02*
X116105809Y-57769714D01*
X116105809Y-57960190D02*
X116153428Y-57864952D01*
X116201047Y-57817333D01*
X116296285Y-57769714D01*
X116391523Y-57769714D01*
X116629619Y-57769714D02*
X116867714Y-58436380D01*
X117105809Y-57769714D02*
X116867714Y-58436380D01*
X116772476Y-58674476D01*
X116724857Y-58722095D01*
X116629619Y-58769714D01*
X118010571Y-58436380D02*
X117439142Y-58436380D01*
X117724857Y-58436380D02*
X117724857Y-57436380D01*
X117629619Y-57579238D01*
X117534380Y-57674476D01*
X117439142Y-57722095D01*
X118510571Y-62591142D02*
X119653428Y-62591142D01*
X119082000Y-63162571D02*
X119082000Y-62019714D01*
%TO.C,C2*%
X107893142Y-31154666D02*
X107940761Y-31202285D01*
X107988380Y-31345142D01*
X107988380Y-31440380D01*
X107940761Y-31583238D01*
X107845523Y-31678476D01*
X107750285Y-31726095D01*
X107559809Y-31773714D01*
X107416952Y-31773714D01*
X107226476Y-31726095D01*
X107131238Y-31678476D01*
X107036000Y-31583238D01*
X106988380Y-31440380D01*
X106988380Y-31345142D01*
X107036000Y-31202285D01*
X107083619Y-31154666D01*
X107083619Y-30773714D02*
X107036000Y-30726095D01*
X106988380Y-30630857D01*
X106988380Y-30392761D01*
X107036000Y-30297523D01*
X107083619Y-30249904D01*
X107178857Y-30202285D01*
X107274095Y-30202285D01*
X107416952Y-30249904D01*
X107988380Y-30821333D01*
X107988380Y-30202285D01*
%TO.C,C1*%
X127197142Y-18962666D02*
X127244761Y-19010285D01*
X127292380Y-19153142D01*
X127292380Y-19248380D01*
X127244761Y-19391238D01*
X127149523Y-19486476D01*
X127054285Y-19534095D01*
X126863809Y-19581714D01*
X126720952Y-19581714D01*
X126530476Y-19534095D01*
X126435238Y-19486476D01*
X126340000Y-19391238D01*
X126292380Y-19248380D01*
X126292380Y-19153142D01*
X126340000Y-19010285D01*
X126387619Y-18962666D01*
X127292380Y-18010285D02*
X127292380Y-18581714D01*
X127292380Y-18296000D02*
X126292380Y-18296000D01*
X126435238Y-18391238D01*
X126530476Y-18486476D01*
X126578095Y-18581714D01*
%TO.C,U4*%
X112776095Y-46486380D02*
X112776095Y-47295904D01*
X112823714Y-47391142D01*
X112871333Y-47438761D01*
X112966571Y-47486380D01*
X113157047Y-47486380D01*
X113252285Y-47438761D01*
X113299904Y-47391142D01*
X113347523Y-47295904D01*
X113347523Y-46486380D01*
X114252285Y-46819714D02*
X114252285Y-47486380D01*
X114014190Y-46438761D02*
X113776095Y-47153047D01*
X114395142Y-47153047D01*
%TO.C,R10*%
X101638380Y-46870857D02*
X101162190Y-47204190D01*
X101638380Y-47442285D02*
X100638380Y-47442285D01*
X100638380Y-47061333D01*
X100686000Y-46966095D01*
X100733619Y-46918476D01*
X100828857Y-46870857D01*
X100971714Y-46870857D01*
X101066952Y-46918476D01*
X101114571Y-46966095D01*
X101162190Y-47061333D01*
X101162190Y-47442285D01*
X101638380Y-45918476D02*
X101638380Y-46489904D01*
X101638380Y-46204190D02*
X100638380Y-46204190D01*
X100781238Y-46299428D01*
X100876476Y-46394666D01*
X100924095Y-46489904D01*
X100638380Y-45299428D02*
X100638380Y-45204190D01*
X100686000Y-45108952D01*
X100733619Y-45061333D01*
X100828857Y-45013714D01*
X101019333Y-44966095D01*
X101257428Y-44966095D01*
X101447904Y-45013714D01*
X101543142Y-45061333D01*
X101590761Y-45108952D01*
X101638380Y-45204190D01*
X101638380Y-45299428D01*
X101590761Y-45394666D01*
X101543142Y-45442285D01*
X101447904Y-45489904D01*
X101257428Y-45537523D01*
X101019333Y-45537523D01*
X100828857Y-45489904D01*
X100733619Y-45442285D01*
X100686000Y-45394666D01*
X100638380Y-45299428D01*
%TO.C,R9*%
X128542207Y-39380666D02*
X128066017Y-39714000D01*
X128542207Y-39952095D02*
X127542207Y-39952095D01*
X127542207Y-39571142D01*
X127589827Y-39475904D01*
X127637446Y-39428285D01*
X127732684Y-39380666D01*
X127875541Y-39380666D01*
X127970779Y-39428285D01*
X128018398Y-39475904D01*
X128066017Y-39571142D01*
X128066017Y-39952095D01*
X128542207Y-38904476D02*
X128542207Y-38714000D01*
X128494588Y-38618761D01*
X128446969Y-38571142D01*
X128304112Y-38475904D01*
X128113636Y-38428285D01*
X127732684Y-38428285D01*
X127637446Y-38475904D01*
X127589827Y-38523523D01*
X127542207Y-38618761D01*
X127542207Y-38809238D01*
X127589827Y-38904476D01*
X127637446Y-38952095D01*
X127732684Y-38999714D01*
X127970779Y-38999714D01*
X128066017Y-38952095D01*
X128113636Y-38904476D01*
X128161255Y-38809238D01*
X128161255Y-38618761D01*
X128113636Y-38523523D01*
X128066017Y-38475904D01*
X127970779Y-38428285D01*
%TO.C,R8*%
X128542207Y-43390666D02*
X128066017Y-43724000D01*
X128542207Y-43962095D02*
X127542207Y-43962095D01*
X127542207Y-43581142D01*
X127589827Y-43485904D01*
X127637446Y-43438285D01*
X127732684Y-43390666D01*
X127875541Y-43390666D01*
X127970779Y-43438285D01*
X128018398Y-43485904D01*
X128066017Y-43581142D01*
X128066017Y-43962095D01*
X127970779Y-42819238D02*
X127923160Y-42914476D01*
X127875541Y-42962095D01*
X127780303Y-43009714D01*
X127732684Y-43009714D01*
X127637446Y-42962095D01*
X127589827Y-42914476D01*
X127542207Y-42819238D01*
X127542207Y-42628761D01*
X127589827Y-42533523D01*
X127637446Y-42485904D01*
X127732684Y-42438285D01*
X127780303Y-42438285D01*
X127875541Y-42485904D01*
X127923160Y-42533523D01*
X127970779Y-42628761D01*
X127970779Y-42819238D01*
X128018398Y-42914476D01*
X128066017Y-42962095D01*
X128161255Y-43009714D01*
X128351731Y-43009714D01*
X128446969Y-42962095D01*
X128494588Y-42914476D01*
X128542207Y-42819238D01*
X128542207Y-42628761D01*
X128494588Y-42533523D01*
X128446969Y-42485904D01*
X128351731Y-42438285D01*
X128161255Y-42438285D01*
X128066017Y-42485904D01*
X128018398Y-42533523D01*
X127970779Y-42628761D01*
%TO.C,R7*%
X128542207Y-47400666D02*
X128066017Y-47734000D01*
X128542207Y-47972095D02*
X127542207Y-47972095D01*
X127542207Y-47591142D01*
X127589827Y-47495904D01*
X127637446Y-47448285D01*
X127732684Y-47400666D01*
X127875541Y-47400666D01*
X127970779Y-47448285D01*
X128018398Y-47495904D01*
X128066017Y-47591142D01*
X128066017Y-47972095D01*
X127542207Y-47067333D02*
X127542207Y-46400666D01*
X128542207Y-46829238D01*
%TO.C,J1*%
X180260666Y-66088380D02*
X180260666Y-66802666D01*
X180213047Y-66945523D01*
X180117809Y-67040761D01*
X179974952Y-67088380D01*
X179879714Y-67088380D01*
X181260666Y-67088380D02*
X180689238Y-67088380D01*
X180974952Y-67088380D02*
X180974952Y-66088380D01*
X180879714Y-66231238D01*
X180784476Y-66326476D01*
X180689238Y-66374095D01*
%TO.C,D6*%
X101115904Y-42528380D02*
X101115904Y-41528380D01*
X101354000Y-41528380D01*
X101496857Y-41576000D01*
X101592095Y-41671238D01*
X101639714Y-41766476D01*
X101687333Y-41956952D01*
X101687333Y-42099809D01*
X101639714Y-42290285D01*
X101592095Y-42385523D01*
X101496857Y-42480761D01*
X101354000Y-42528380D01*
X101115904Y-42528380D01*
X102544476Y-41528380D02*
X102354000Y-41528380D01*
X102258761Y-41576000D01*
X102211142Y-41623619D01*
X102115904Y-41766476D01*
X102068285Y-41956952D01*
X102068285Y-42337904D01*
X102115904Y-42433142D01*
X102163523Y-42480761D01*
X102258761Y-42528380D01*
X102449238Y-42528380D01*
X102544476Y-42480761D01*
X102592095Y-42433142D01*
X102639714Y-42337904D01*
X102639714Y-42099809D01*
X102592095Y-42004571D01*
X102544476Y-41956952D01*
X102449238Y-41909333D01*
X102258761Y-41909333D01*
X102163523Y-41956952D01*
X102115904Y-42004571D01*
X102068285Y-42099809D01*
%TO.C,D5*%
X121426380Y-38330095D02*
X120426380Y-38330095D01*
X120426380Y-38092000D01*
X120474000Y-37949142D01*
X120569238Y-37853904D01*
X120664476Y-37806285D01*
X120854952Y-37758666D01*
X120997809Y-37758666D01*
X121188285Y-37806285D01*
X121283523Y-37853904D01*
X121378761Y-37949142D01*
X121426380Y-38092000D01*
X121426380Y-38330095D01*
X120426380Y-36853904D02*
X120426380Y-37330095D01*
X120902571Y-37377714D01*
X120854952Y-37330095D01*
X120807333Y-37234857D01*
X120807333Y-36996761D01*
X120854952Y-36901523D01*
X120902571Y-36853904D01*
X120997809Y-36806285D01*
X121235904Y-36806285D01*
X121331142Y-36853904D01*
X121378761Y-36901523D01*
X121426380Y-36996761D01*
X121426380Y-37234857D01*
X121378761Y-37330095D01*
X121331142Y-37377714D01*
X121796380Y-42933904D02*
X120796380Y-42933904D01*
X121796380Y-42362476D02*
X121224952Y-42791047D01*
X120796380Y-42362476D02*
X121367809Y-42933904D01*
%TO.C,D4*%
X127522380Y-30202095D02*
X126522380Y-30202095D01*
X126522380Y-29964000D01*
X126570000Y-29821142D01*
X126665238Y-29725904D01*
X126760476Y-29678285D01*
X126950952Y-29630666D01*
X127093809Y-29630666D01*
X127284285Y-29678285D01*
X127379523Y-29725904D01*
X127474761Y-29821142D01*
X127522380Y-29964000D01*
X127522380Y-30202095D01*
X126855714Y-28773523D02*
X127522380Y-28773523D01*
X126474761Y-29011619D02*
X127189047Y-29249714D01*
X127189047Y-28630666D01*
X127892380Y-34805904D02*
X126892380Y-34805904D01*
X127892380Y-34234476D02*
X127320952Y-34663047D01*
X126892380Y-34234476D02*
X127463809Y-34805904D01*
%TO.C,U2*%
X179673214Y-84526730D02*
X179673214Y-85855509D01*
X179751377Y-86011836D01*
X179829541Y-86089999D01*
X179985868Y-86168163D01*
X180298522Y-86168163D01*
X180454849Y-86089999D01*
X180533012Y-86011836D01*
X180611176Y-85855509D01*
X180611176Y-84526730D01*
X181314647Y-84683056D02*
X181392810Y-84604893D01*
X181549137Y-84526730D01*
X181939955Y-84526730D01*
X182096282Y-84604893D01*
X182174445Y-84683056D01*
X182252609Y-84839383D01*
X182252609Y-84995710D01*
X182174445Y-85230201D01*
X181236483Y-86168163D01*
X182252609Y-86168163D01*
X187999148Y-80864594D02*
X189249331Y-80864594D01*
X188624240Y-81489686D02*
X188624240Y-80239502D01*
X187927965Y-75804675D02*
X189179114Y-75804675D01*
%TO.C,U1*%
X148934674Y-81415676D02*
X148934674Y-81934070D01*
X148965167Y-81995058D01*
X148995661Y-82025552D01*
X149056649Y-82056046D01*
X149178624Y-82056046D01*
X149239612Y-82025552D01*
X149270105Y-81995058D01*
X149300599Y-81934070D01*
X149300599Y-81415676D01*
X149940969Y-82056046D02*
X149575044Y-82056046D01*
X149758006Y-82056046D02*
X149758006Y-81415676D01*
X149697019Y-81507157D01*
X149636031Y-81568145D01*
X149575044Y-81598639D01*
%TO.C,D3*%
X161399666Y-85342333D02*
X161399666Y-83942333D01*
X161733000Y-83942333D01*
X161933000Y-84009000D01*
X162066333Y-84142333D01*
X162133000Y-84275666D01*
X162199666Y-84542333D01*
X162199666Y-84742333D01*
X162133000Y-85009000D01*
X162066333Y-85142333D01*
X161933000Y-85275666D01*
X161733000Y-85342333D01*
X161399666Y-85342333D01*
X162666333Y-83942333D02*
X163533000Y-83942333D01*
X163066333Y-84475666D01*
X163266333Y-84475666D01*
X163399666Y-84542333D01*
X163466333Y-84609000D01*
X163533000Y-84742333D01*
X163533000Y-85075666D01*
X163466333Y-85209000D01*
X163399666Y-85275666D01*
X163266333Y-85342333D01*
X162866333Y-85342333D01*
X162733000Y-85275666D01*
X162666333Y-85209000D01*
%TO.C,J2*%
X218590666Y-82192380D02*
X218590666Y-82906666D01*
X218543047Y-83049523D01*
X218447809Y-83144761D01*
X218304952Y-83192380D01*
X218209714Y-83192380D01*
X219019238Y-82287619D02*
X219066857Y-82240000D01*
X219162095Y-82192380D01*
X219400190Y-82192380D01*
X219495428Y-82240000D01*
X219543047Y-82287619D01*
X219590666Y-82382857D01*
X219590666Y-82478095D01*
X219543047Y-82620952D01*
X218971619Y-83192380D01*
X219590666Y-83192380D01*
%TO.C,U3*%
X198120095Y-71798380D02*
X198120095Y-72607904D01*
X198167714Y-72703142D01*
X198215333Y-72750761D01*
X198310571Y-72798380D01*
X198501047Y-72798380D01*
X198596285Y-72750761D01*
X198643904Y-72703142D01*
X198691523Y-72607904D01*
X198691523Y-71798380D01*
X199072476Y-71798380D02*
X199691523Y-71798380D01*
X199358190Y-72179333D01*
X199501047Y-72179333D01*
X199596285Y-72226952D01*
X199643904Y-72274571D01*
X199691523Y-72369809D01*
X199691523Y-72607904D01*
X199643904Y-72703142D01*
X199596285Y-72750761D01*
X199501047Y-72798380D01*
X199215333Y-72798380D01*
X199120095Y-72750761D01*
X199072476Y-72703142D01*
%TO.C,R6*%
X207810380Y-77699666D02*
X207334190Y-78033000D01*
X207810380Y-78271095D02*
X206810380Y-78271095D01*
X206810380Y-77890142D01*
X206858000Y-77794904D01*
X206905619Y-77747285D01*
X207000857Y-77699666D01*
X207143714Y-77699666D01*
X207238952Y-77747285D01*
X207286571Y-77794904D01*
X207334190Y-77890142D01*
X207334190Y-78271095D01*
X206810380Y-76842523D02*
X206810380Y-77033000D01*
X206858000Y-77128238D01*
X206905619Y-77175857D01*
X207048476Y-77271095D01*
X207238952Y-77318714D01*
X207619904Y-77318714D01*
X207715142Y-77271095D01*
X207762761Y-77223476D01*
X207810380Y-77128238D01*
X207810380Y-76937761D01*
X207762761Y-76842523D01*
X207715142Y-76794904D01*
X207619904Y-76747285D01*
X207381809Y-76747285D01*
X207286571Y-76794904D01*
X207238952Y-76842523D01*
X207191333Y-76937761D01*
X207191333Y-77128238D01*
X207238952Y-77223476D01*
X207286571Y-77271095D01*
X207381809Y-77318714D01*
%TO.C,R5*%
X189315333Y-76298380D02*
X188982000Y-75822190D01*
X188743904Y-76298380D02*
X188743904Y-75298380D01*
X189124857Y-75298380D01*
X189220095Y-75346000D01*
X189267714Y-75393619D01*
X189315333Y-75488857D01*
X189315333Y-75631714D01*
X189267714Y-75726952D01*
X189220095Y-75774571D01*
X189124857Y-75822190D01*
X188743904Y-75822190D01*
X190220095Y-75298380D02*
X189743904Y-75298380D01*
X189696285Y-75774571D01*
X189743904Y-75726952D01*
X189839142Y-75679333D01*
X190077238Y-75679333D01*
X190172476Y-75726952D01*
X190220095Y-75774571D01*
X190267714Y-75869809D01*
X190267714Y-76107904D01*
X190220095Y-76203142D01*
X190172476Y-76250761D01*
X190077238Y-76298380D01*
X189839142Y-76298380D01*
X189743904Y-76250761D01*
X189696285Y-76203142D01*
%TO.C,R4*%
X173586380Y-76874666D02*
X173110190Y-77208000D01*
X173586380Y-77446095D02*
X172586380Y-77446095D01*
X172586380Y-77065142D01*
X172634000Y-76969904D01*
X172681619Y-76922285D01*
X172776857Y-76874666D01*
X172919714Y-76874666D01*
X173014952Y-76922285D01*
X173062571Y-76969904D01*
X173110190Y-77065142D01*
X173110190Y-77446095D01*
X172919714Y-76017523D02*
X173586380Y-76017523D01*
X172538761Y-76255619D02*
X173253047Y-76493714D01*
X173253047Y-75874666D01*
%TO.C,R2*%
X163411333Y-84426380D02*
X163078000Y-83950190D01*
X162839904Y-84426380D02*
X162839904Y-83426380D01*
X163220857Y-83426380D01*
X163316095Y-83474000D01*
X163363714Y-83521619D01*
X163411333Y-83616857D01*
X163411333Y-83759714D01*
X163363714Y-83854952D01*
X163316095Y-83902571D01*
X163220857Y-83950190D01*
X162839904Y-83950190D01*
X163792285Y-83521619D02*
X163839904Y-83474000D01*
X163935142Y-83426380D01*
X164173238Y-83426380D01*
X164268476Y-83474000D01*
X164316095Y-83521619D01*
X164363714Y-83616857D01*
X164363714Y-83712095D01*
X164316095Y-83854952D01*
X163744666Y-84426380D01*
X164363714Y-84426380D01*
%TO.C,R1*%
X154022380Y-80430666D02*
X153546190Y-80764000D01*
X154022380Y-81002095D02*
X153022380Y-81002095D01*
X153022380Y-80621142D01*
X153070000Y-80525904D01*
X153117619Y-80478285D01*
X153212857Y-80430666D01*
X153355714Y-80430666D01*
X153450952Y-80478285D01*
X153498571Y-80525904D01*
X153546190Y-80621142D01*
X153546190Y-81002095D01*
X154022380Y-79478285D02*
X154022380Y-80049714D01*
X154022380Y-79764000D02*
X153022380Y-79764000D01*
X153165238Y-79859238D01*
X153260476Y-79954476D01*
X153308095Y-80049714D01*
%TO.C,D2*%
X172736380Y-89384095D02*
X171736380Y-89384095D01*
X171736380Y-89146000D01*
X171784000Y-89003142D01*
X171879238Y-88907904D01*
X171974476Y-88860285D01*
X172164952Y-88812666D01*
X172307809Y-88812666D01*
X172498285Y-88860285D01*
X172593523Y-88907904D01*
X172688761Y-89003142D01*
X172736380Y-89146000D01*
X172736380Y-89384095D01*
X171831619Y-88431714D02*
X171784000Y-88384095D01*
X171736380Y-88288857D01*
X171736380Y-88050761D01*
X171784000Y-87955523D01*
X171831619Y-87907904D01*
X171926857Y-87860285D01*
X172022095Y-87860285D01*
X172164952Y-87907904D01*
X172736380Y-88479333D01*
X172736380Y-87860285D01*
%TO.C,D1*%
X161313904Y-74256380D02*
X161313904Y-73256380D01*
X161552000Y-73256380D01*
X161694857Y-73304000D01*
X161790095Y-73399238D01*
X161837714Y-73494476D01*
X161885333Y-73684952D01*
X161885333Y-73827809D01*
X161837714Y-74018285D01*
X161790095Y-74113523D01*
X161694857Y-74208761D01*
X161552000Y-74256380D01*
X161313904Y-74256380D01*
X162837714Y-74256380D02*
X162266285Y-74256380D01*
X162552000Y-74256380D02*
X162552000Y-73256380D01*
X162456761Y-73399238D01*
X162361523Y-73494476D01*
X162266285Y-73542095D01*
%TD*%
M02*
