%TF.GenerationSoftware,KiCad,Pcbnew,(5.1.10)-1*%
%TF.CreationDate,2021-11-11T09:46:56+05:30*%
%TF.ProjectId,fan dimmer,66616e20-6469-46d6-9d65-722e6b696361,rev?*%
%TF.SameCoordinates,Original*%
%TF.FileFunction,Copper,L1,Top*%
%TF.FilePolarity,Positive*%
%FSLAX46Y46*%
G04 Gerber Fmt 4.6, Leading zero omitted, Abs format (unit mm)*
G04 Created by KiCad (PCBNEW (5.1.10)-1) date 2021-11-11 09:46:56*
%MOMM*%
%LPD*%
G01*
G04 APERTURE LIST*
%ADD10C,0.100000*%
%ADD11C,0.150000*%
%ADD12C,0.300000*%
%ADD13C,0.400000*%
%TA.AperFunction,NonConductor*%
%ADD14C,0.150000*%
%TD*%
%TA.AperFunction,ComponentPad*%
%ADD15R,3.000000X3.000000*%
%TD*%
%TA.AperFunction,ComponentPad*%
%ADD16C,3.000000*%
%TD*%
%TA.AperFunction,SMDPad,CuDef*%
%ADD17R,1.600000X2.200000*%
%TD*%
%TA.AperFunction,ComponentPad*%
%ADD18O,1.600000X1.600000*%
%TD*%
%TA.AperFunction,ComponentPad*%
%ADD19R,1.600000X1.600000*%
%TD*%
%TA.AperFunction,ComponentPad*%
%ADD20C,1.800000*%
%TD*%
%TA.AperFunction,ComponentPad*%
%ADD21R,1.800000X1.800000*%
%TD*%
%TA.AperFunction,ComponentPad*%
%ADD22O,2.200000X2.200000*%
%TD*%
%TA.AperFunction,ComponentPad*%
%ADD23R,2.200000X2.200000*%
%TD*%
%TA.AperFunction,SMDPad,CuDef*%
%ADD24R,2.235200X1.244600*%
%TD*%
%TA.AperFunction,ComponentPad*%
%ADD25C,1.130000*%
%TD*%
%TA.AperFunction,ComponentPad*%
%ADD26R,1.130000X1.130000*%
%TD*%
%TA.AperFunction,ComponentPad*%
%ADD27C,1.790000*%
%TD*%
%TA.AperFunction,ComponentPad*%
%ADD28R,1.790000X1.790000*%
%TD*%
%TA.AperFunction,ComponentPad*%
%ADD29C,1.524000*%
%TD*%
%TA.AperFunction,ComponentPad*%
%ADD30R,1.524000X1.524000*%
%TD*%
%TA.AperFunction,Conductor*%
%ADD31C,0.250000*%
%TD*%
G04 APERTURE END LIST*
D10*
D11*
X177002200Y-166007200D02*
X177002200Y-198007200D01*
X285002200Y-198007200D01*
X285002200Y-166007200D01*
X177002200Y-166007200D01*
D10*
D11*
X10000000Y-10000000D02*
X10000000Y-200007200D01*
X287002200Y-200007200D01*
X287002200Y-10000000D01*
X10000000Y-10000000D01*
D10*
D11*
X12000000Y-12000000D02*
X12000000Y-198007200D01*
X285002200Y-198007200D01*
X285002200Y-12000000D01*
X12000000Y-12000000D01*
D10*
D11*
X60000000Y-12000000D02*
X60000000Y-10000000D01*
D10*
D11*
X110000000Y-12000000D02*
X110000000Y-10000000D01*
D10*
D11*
X160000000Y-12000000D02*
X160000000Y-10000000D01*
D10*
D11*
X210000000Y-12000000D02*
X210000000Y-10000000D01*
D10*
D11*
X260000000Y-12000000D02*
X260000000Y-10000000D01*
D10*
D11*
X36065476Y-11588095D02*
X35322619Y-11588095D01*
X35694047Y-11588095D02*
X35694047Y-10288095D01*
X35570238Y-10473809D01*
X35446428Y-10597619D01*
X35322619Y-10659523D01*
D10*
D11*
X85322619Y-10411904D02*
X85384523Y-10350000D01*
X85508333Y-10288095D01*
X85817857Y-10288095D01*
X85941666Y-10350000D01*
X86003571Y-10411904D01*
X86065476Y-10535714D01*
X86065476Y-10659523D01*
X86003571Y-10845238D01*
X85260714Y-11588095D01*
X86065476Y-11588095D01*
D10*
D11*
X135260714Y-10288095D02*
X136065476Y-10288095D01*
X135632142Y-10783333D01*
X135817857Y-10783333D01*
X135941666Y-10845238D01*
X136003571Y-10907142D01*
X136065476Y-11030952D01*
X136065476Y-11340476D01*
X136003571Y-11464285D01*
X135941666Y-11526190D01*
X135817857Y-11588095D01*
X135446428Y-11588095D01*
X135322619Y-11526190D01*
X135260714Y-11464285D01*
D10*
D11*
X185941666Y-10721428D02*
X185941666Y-11588095D01*
X185632142Y-10226190D02*
X185322619Y-11154761D01*
X186127380Y-11154761D01*
D10*
D11*
X236003571Y-10288095D02*
X235384523Y-10288095D01*
X235322619Y-10907142D01*
X235384523Y-10845238D01*
X235508333Y-10783333D01*
X235817857Y-10783333D01*
X235941666Y-10845238D01*
X236003571Y-10907142D01*
X236065476Y-11030952D01*
X236065476Y-11340476D01*
X236003571Y-11464285D01*
X235941666Y-11526190D01*
X235817857Y-11588095D01*
X235508333Y-11588095D01*
X235384523Y-11526190D01*
X235322619Y-11464285D01*
D10*
D11*
X285941666Y-10288095D02*
X285694047Y-10288095D01*
X285570238Y-10350000D01*
X285508333Y-10411904D01*
X285384523Y-10597619D01*
X285322619Y-10845238D01*
X285322619Y-11340476D01*
X285384523Y-11464285D01*
X285446428Y-11526190D01*
X285570238Y-11588095D01*
X285817857Y-11588095D01*
X285941666Y-11526190D01*
X286003571Y-11464285D01*
X286065476Y-11340476D01*
X286065476Y-11030952D01*
X286003571Y-10907142D01*
X285941666Y-10845238D01*
X285817857Y-10783333D01*
X285570238Y-10783333D01*
X285446428Y-10845238D01*
X285384523Y-10907142D01*
X285322619Y-11030952D01*
D10*
D11*
X60000000Y-198007200D02*
X60000000Y-200007200D01*
D10*
D11*
X110000000Y-198007200D02*
X110000000Y-200007200D01*
D10*
D11*
X160000000Y-198007200D02*
X160000000Y-200007200D01*
D10*
D11*
X210000000Y-198007200D02*
X210000000Y-200007200D01*
D10*
D11*
X260000000Y-198007200D02*
X260000000Y-200007200D01*
D10*
D11*
X36065476Y-199595295D02*
X35322619Y-199595295D01*
X35694047Y-199595295D02*
X35694047Y-198295295D01*
X35570238Y-198481009D01*
X35446428Y-198604819D01*
X35322619Y-198666723D01*
D10*
D11*
X85322619Y-198419104D02*
X85384523Y-198357200D01*
X85508333Y-198295295D01*
X85817857Y-198295295D01*
X85941666Y-198357200D01*
X86003571Y-198419104D01*
X86065476Y-198542914D01*
X86065476Y-198666723D01*
X86003571Y-198852438D01*
X85260714Y-199595295D01*
X86065476Y-199595295D01*
D10*
D11*
X135260714Y-198295295D02*
X136065476Y-198295295D01*
X135632142Y-198790533D01*
X135817857Y-198790533D01*
X135941666Y-198852438D01*
X136003571Y-198914342D01*
X136065476Y-199038152D01*
X136065476Y-199347676D01*
X136003571Y-199471485D01*
X135941666Y-199533390D01*
X135817857Y-199595295D01*
X135446428Y-199595295D01*
X135322619Y-199533390D01*
X135260714Y-199471485D01*
D10*
D11*
X185941666Y-198728628D02*
X185941666Y-199595295D01*
X185632142Y-198233390D02*
X185322619Y-199161961D01*
X186127380Y-199161961D01*
D10*
D11*
X236003571Y-198295295D02*
X235384523Y-198295295D01*
X235322619Y-198914342D01*
X235384523Y-198852438D01*
X235508333Y-198790533D01*
X235817857Y-198790533D01*
X235941666Y-198852438D01*
X236003571Y-198914342D01*
X236065476Y-199038152D01*
X236065476Y-199347676D01*
X236003571Y-199471485D01*
X235941666Y-199533390D01*
X235817857Y-199595295D01*
X235508333Y-199595295D01*
X235384523Y-199533390D01*
X235322619Y-199471485D01*
D10*
D11*
X285941666Y-198295295D02*
X285694047Y-198295295D01*
X285570238Y-198357200D01*
X285508333Y-198419104D01*
X285384523Y-198604819D01*
X285322619Y-198852438D01*
X285322619Y-199347676D01*
X285384523Y-199471485D01*
X285446428Y-199533390D01*
X285570238Y-199595295D01*
X285817857Y-199595295D01*
X285941666Y-199533390D01*
X286003571Y-199471485D01*
X286065476Y-199347676D01*
X286065476Y-199038152D01*
X286003571Y-198914342D01*
X285941666Y-198852438D01*
X285817857Y-198790533D01*
X285570238Y-198790533D01*
X285446428Y-198852438D01*
X285384523Y-198914342D01*
X285322619Y-199038152D01*
D10*
D11*
X10000000Y-60000000D02*
X12000000Y-60000000D01*
D10*
D11*
X10000000Y-110000000D02*
X12000000Y-110000000D01*
D10*
D11*
X10000000Y-160000000D02*
X12000000Y-160000000D01*
D10*
D11*
X10690476Y-35216666D02*
X11309523Y-35216666D01*
X10566666Y-35588095D02*
X11000000Y-34288095D01*
X11433333Y-35588095D01*
D10*
D11*
X11092857Y-84907142D02*
X11278571Y-84969047D01*
X11340476Y-85030952D01*
X11402380Y-85154761D01*
X11402380Y-85340476D01*
X11340476Y-85464285D01*
X11278571Y-85526190D01*
X11154761Y-85588095D01*
X10659523Y-85588095D01*
X10659523Y-84288095D01*
X11092857Y-84288095D01*
X11216666Y-84350000D01*
X11278571Y-84411904D01*
X11340476Y-84535714D01*
X11340476Y-84659523D01*
X11278571Y-84783333D01*
X11216666Y-84845238D01*
X11092857Y-84907142D01*
X10659523Y-84907142D01*
D10*
D11*
X11402380Y-135464285D02*
X11340476Y-135526190D01*
X11154761Y-135588095D01*
X11030952Y-135588095D01*
X10845238Y-135526190D01*
X10721428Y-135402380D01*
X10659523Y-135278571D01*
X10597619Y-135030952D01*
X10597619Y-134845238D01*
X10659523Y-134597619D01*
X10721428Y-134473809D01*
X10845238Y-134350000D01*
X11030952Y-134288095D01*
X11154761Y-134288095D01*
X11340476Y-134350000D01*
X11402380Y-134411904D01*
D10*
D11*
X10659523Y-185588095D02*
X10659523Y-184288095D01*
X10969047Y-184288095D01*
X11154761Y-184350000D01*
X11278571Y-184473809D01*
X11340476Y-184597619D01*
X11402380Y-184845238D01*
X11402380Y-185030952D01*
X11340476Y-185278571D01*
X11278571Y-185402380D01*
X11154761Y-185526190D01*
X10969047Y-185588095D01*
X10659523Y-185588095D01*
D10*
D11*
X287002200Y-60000000D02*
X285002200Y-60000000D01*
D10*
D11*
X287002200Y-110000000D02*
X285002200Y-110000000D01*
D10*
D11*
X287002200Y-160000000D02*
X285002200Y-160000000D01*
D10*
D11*
X285692676Y-35216666D02*
X286311723Y-35216666D01*
X285568866Y-35588095D02*
X286002200Y-34288095D01*
X286435533Y-35588095D01*
D10*
D11*
X286095057Y-84907142D02*
X286280771Y-84969047D01*
X286342676Y-85030952D01*
X286404580Y-85154761D01*
X286404580Y-85340476D01*
X286342676Y-85464285D01*
X286280771Y-85526190D01*
X286156961Y-85588095D01*
X285661723Y-85588095D01*
X285661723Y-84288095D01*
X286095057Y-84288095D01*
X286218866Y-84350000D01*
X286280771Y-84411904D01*
X286342676Y-84535714D01*
X286342676Y-84659523D01*
X286280771Y-84783333D01*
X286218866Y-84845238D01*
X286095057Y-84907142D01*
X285661723Y-84907142D01*
D10*
D11*
X286404580Y-135464285D02*
X286342676Y-135526190D01*
X286156961Y-135588095D01*
X286033152Y-135588095D01*
X285847438Y-135526190D01*
X285723628Y-135402380D01*
X285661723Y-135278571D01*
X285599819Y-135030952D01*
X285599819Y-134845238D01*
X285661723Y-134597619D01*
X285723628Y-134473809D01*
X285847438Y-134350000D01*
X286033152Y-134288095D01*
X286156961Y-134288095D01*
X286342676Y-134350000D01*
X286404580Y-134411904D01*
D10*
D11*
X285661723Y-185588095D02*
X285661723Y-184288095D01*
X285971247Y-184288095D01*
X286156961Y-184350000D01*
X286280771Y-184473809D01*
X286342676Y-184597619D01*
X286404580Y-184845238D01*
X286404580Y-185030952D01*
X286342676Y-185278571D01*
X286280771Y-185402380D01*
X286156961Y-185526190D01*
X285971247Y-185588095D01*
X285661723Y-185588095D01*
D10*
D11*
X200434342Y-193785771D02*
X200434342Y-192285771D01*
X200791485Y-192285771D01*
X201005771Y-192357200D01*
X201148628Y-192500057D01*
X201220057Y-192642914D01*
X201291485Y-192928628D01*
X201291485Y-193142914D01*
X201220057Y-193428628D01*
X201148628Y-193571485D01*
X201005771Y-193714342D01*
X200791485Y-193785771D01*
X200434342Y-193785771D01*
X202577200Y-193785771D02*
X202577200Y-193000057D01*
X202505771Y-192857200D01*
X202362914Y-192785771D01*
X202077200Y-192785771D01*
X201934342Y-192857200D01*
X202577200Y-193714342D02*
X202434342Y-193785771D01*
X202077200Y-193785771D01*
X201934342Y-193714342D01*
X201862914Y-193571485D01*
X201862914Y-193428628D01*
X201934342Y-193285771D01*
X202077200Y-193214342D01*
X202434342Y-193214342D01*
X202577200Y-193142914D01*
X203077200Y-192785771D02*
X203648628Y-192785771D01*
X203291485Y-192285771D02*
X203291485Y-193571485D01*
X203362914Y-193714342D01*
X203505771Y-193785771D01*
X203648628Y-193785771D01*
X204720057Y-193714342D02*
X204577200Y-193785771D01*
X204291485Y-193785771D01*
X204148628Y-193714342D01*
X204077200Y-193571485D01*
X204077200Y-193000057D01*
X204148628Y-192857200D01*
X204291485Y-192785771D01*
X204577200Y-192785771D01*
X204720057Y-192857200D01*
X204791485Y-193000057D01*
X204791485Y-193142914D01*
X204077200Y-193285771D01*
X205434342Y-193642914D02*
X205505771Y-193714342D01*
X205434342Y-193785771D01*
X205362914Y-193714342D01*
X205434342Y-193642914D01*
X205434342Y-193785771D01*
X205434342Y-192857200D02*
X205505771Y-192928628D01*
X205434342Y-193000057D01*
X205362914Y-192928628D01*
X205434342Y-192857200D01*
X205434342Y-193000057D01*
D10*
D11*
X177002200Y-194507200D02*
X285002200Y-194507200D01*
D10*
D11*
X178434342Y-196585771D02*
X178434342Y-195085771D01*
X179291485Y-196585771D02*
X178648628Y-195728628D01*
X179291485Y-195085771D02*
X178434342Y-195942914D01*
X179934342Y-196585771D02*
X179934342Y-195585771D01*
X179934342Y-195085771D02*
X179862914Y-195157200D01*
X179934342Y-195228628D01*
X180005771Y-195157200D01*
X179934342Y-195085771D01*
X179934342Y-195228628D01*
X181505771Y-196442914D02*
X181434342Y-196514342D01*
X181220057Y-196585771D01*
X181077200Y-196585771D01*
X180862914Y-196514342D01*
X180720057Y-196371485D01*
X180648628Y-196228628D01*
X180577200Y-195942914D01*
X180577200Y-195728628D01*
X180648628Y-195442914D01*
X180720057Y-195300057D01*
X180862914Y-195157200D01*
X181077200Y-195085771D01*
X181220057Y-195085771D01*
X181434342Y-195157200D01*
X181505771Y-195228628D01*
X182791485Y-196585771D02*
X182791485Y-195800057D01*
X182720057Y-195657200D01*
X182577200Y-195585771D01*
X182291485Y-195585771D01*
X182148628Y-195657200D01*
X182791485Y-196514342D02*
X182648628Y-196585771D01*
X182291485Y-196585771D01*
X182148628Y-196514342D01*
X182077200Y-196371485D01*
X182077200Y-196228628D01*
X182148628Y-196085771D01*
X182291485Y-196014342D01*
X182648628Y-196014342D01*
X182791485Y-195942914D01*
X184148628Y-196585771D02*
X184148628Y-195085771D01*
X184148628Y-196514342D02*
X184005771Y-196585771D01*
X183720057Y-196585771D01*
X183577200Y-196514342D01*
X183505771Y-196442914D01*
X183434342Y-196300057D01*
X183434342Y-195871485D01*
X183505771Y-195728628D01*
X183577200Y-195657200D01*
X183720057Y-195585771D01*
X184005771Y-195585771D01*
X184148628Y-195657200D01*
X186005771Y-195800057D02*
X186505771Y-195800057D01*
X186720057Y-196585771D02*
X186005771Y-196585771D01*
X186005771Y-195085771D01*
X186720057Y-195085771D01*
X187362914Y-196442914D02*
X187434342Y-196514342D01*
X187362914Y-196585771D01*
X187291485Y-196514342D01*
X187362914Y-196442914D01*
X187362914Y-196585771D01*
X188077200Y-196585771D02*
X188077200Y-195085771D01*
X188434342Y-195085771D01*
X188648628Y-195157200D01*
X188791485Y-195300057D01*
X188862914Y-195442914D01*
X188934342Y-195728628D01*
X188934342Y-195942914D01*
X188862914Y-196228628D01*
X188791485Y-196371485D01*
X188648628Y-196514342D01*
X188434342Y-196585771D01*
X188077200Y-196585771D01*
X189577200Y-196442914D02*
X189648628Y-196514342D01*
X189577200Y-196585771D01*
X189505771Y-196514342D01*
X189577200Y-196442914D01*
X189577200Y-196585771D01*
X190220057Y-196157200D02*
X190934342Y-196157200D01*
X190077200Y-196585771D02*
X190577200Y-195085771D01*
X191077200Y-196585771D01*
X191577200Y-196442914D02*
X191648628Y-196514342D01*
X191577200Y-196585771D01*
X191505771Y-196514342D01*
X191577200Y-196442914D01*
X191577200Y-196585771D01*
X194577200Y-196585771D02*
X194577200Y-195085771D01*
X194720057Y-196014342D02*
X195148628Y-196585771D01*
X195148628Y-195585771D02*
X194577200Y-196157200D01*
X195791485Y-196585771D02*
X195791485Y-195585771D01*
X195791485Y-195085771D02*
X195720057Y-195157200D01*
X195791485Y-195228628D01*
X195862914Y-195157200D01*
X195791485Y-195085771D01*
X195791485Y-195228628D01*
X197148628Y-196514342D02*
X197005771Y-196585771D01*
X196720057Y-196585771D01*
X196577200Y-196514342D01*
X196505771Y-196442914D01*
X196434342Y-196300057D01*
X196434342Y-195871485D01*
X196505771Y-195728628D01*
X196577200Y-195657200D01*
X196720057Y-195585771D01*
X197005771Y-195585771D01*
X197148628Y-195657200D01*
X198434342Y-196585771D02*
X198434342Y-195800057D01*
X198362914Y-195657200D01*
X198220057Y-195585771D01*
X197934342Y-195585771D01*
X197791485Y-195657200D01*
X198434342Y-196514342D02*
X198291485Y-196585771D01*
X197934342Y-196585771D01*
X197791485Y-196514342D01*
X197720057Y-196371485D01*
X197720057Y-196228628D01*
X197791485Y-196085771D01*
X197934342Y-196014342D01*
X198291485Y-196014342D01*
X198434342Y-195942914D01*
X199791485Y-196585771D02*
X199791485Y-195085771D01*
X199791485Y-196514342D02*
X199648628Y-196585771D01*
X199362914Y-196585771D01*
X199220057Y-196514342D01*
X199148628Y-196442914D01*
X199077200Y-196300057D01*
X199077200Y-195871485D01*
X199148628Y-195728628D01*
X199220057Y-195657200D01*
X199362914Y-195585771D01*
X199648628Y-195585771D01*
X199791485Y-195657200D01*
X202077200Y-197157200D02*
X202005771Y-197085771D01*
X201862914Y-196871485D01*
X201791485Y-196728628D01*
X201720057Y-196514342D01*
X201648628Y-196157200D01*
X201648628Y-195871485D01*
X201720057Y-195514342D01*
X201791485Y-195300057D01*
X201862914Y-195157200D01*
X202005771Y-194942914D01*
X202077200Y-194871485D01*
X203362914Y-195085771D02*
X202648628Y-195085771D01*
X202577200Y-195800057D01*
X202648628Y-195728628D01*
X202791485Y-195657200D01*
X203148628Y-195657200D01*
X203291485Y-195728628D01*
X203362914Y-195800057D01*
X203434342Y-195942914D01*
X203434342Y-196300057D01*
X203362914Y-196442914D01*
X203291485Y-196514342D01*
X203148628Y-196585771D01*
X202791485Y-196585771D01*
X202648628Y-196514342D01*
X202577200Y-196442914D01*
X204077200Y-196442914D02*
X204148628Y-196514342D01*
X204077200Y-196585771D01*
X204005771Y-196514342D01*
X204077200Y-196442914D01*
X204077200Y-196585771D01*
X205577200Y-196585771D02*
X204720057Y-196585771D01*
X205148628Y-196585771D02*
X205148628Y-195085771D01*
X205005771Y-195300057D01*
X204862914Y-195442914D01*
X204720057Y-195514342D01*
X206220057Y-196442914D02*
X206291485Y-196514342D01*
X206220057Y-196585771D01*
X206148628Y-196514342D01*
X206220057Y-196442914D01*
X206220057Y-196585771D01*
X207720057Y-196585771D02*
X206862914Y-196585771D01*
X207291485Y-196585771D02*
X207291485Y-195085771D01*
X207148628Y-195300057D01*
X207005771Y-195442914D01*
X206862914Y-195514342D01*
X208648628Y-195085771D02*
X208791485Y-195085771D01*
X208934342Y-195157200D01*
X209005771Y-195228628D01*
X209077200Y-195371485D01*
X209148628Y-195657200D01*
X209148628Y-196014342D01*
X209077200Y-196300057D01*
X209005771Y-196442914D01*
X208934342Y-196514342D01*
X208791485Y-196585771D01*
X208648628Y-196585771D01*
X208505771Y-196514342D01*
X208434342Y-196442914D01*
X208362914Y-196300057D01*
X208291485Y-196014342D01*
X208291485Y-195657200D01*
X208362914Y-195371485D01*
X208434342Y-195228628D01*
X208505771Y-195157200D01*
X208648628Y-195085771D01*
X209648628Y-197157200D02*
X209720057Y-197085771D01*
X209862914Y-196871485D01*
X209934342Y-196728628D01*
X210005771Y-196514342D01*
X210077200Y-196157200D01*
X210077200Y-195871485D01*
X210005771Y-195514342D01*
X209934342Y-195300057D01*
X209862914Y-195157200D01*
X209720057Y-194942914D01*
X209648628Y-194871485D01*
X210791485Y-196014342D02*
X211934342Y-196014342D01*
X213434342Y-196585771D02*
X212577200Y-196585771D01*
X213005771Y-196585771D02*
X213005771Y-195085771D01*
X212862914Y-195300057D01*
X212720057Y-195442914D01*
X212577200Y-195514342D01*
D10*
D11*
X177002200Y-191507200D02*
X285002200Y-191507200D01*
D10*
D12*
X264411485Y-193785771D02*
X263911485Y-193071485D01*
X263554342Y-193785771D02*
X263554342Y-192285771D01*
X264125771Y-192285771D01*
X264268628Y-192357200D01*
X264340057Y-192428628D01*
X264411485Y-192571485D01*
X264411485Y-192785771D01*
X264340057Y-192928628D01*
X264268628Y-193000057D01*
X264125771Y-193071485D01*
X263554342Y-193071485D01*
X265625771Y-193714342D02*
X265482914Y-193785771D01*
X265197200Y-193785771D01*
X265054342Y-193714342D01*
X264982914Y-193571485D01*
X264982914Y-193000057D01*
X265054342Y-192857200D01*
X265197200Y-192785771D01*
X265482914Y-192785771D01*
X265625771Y-192857200D01*
X265697200Y-193000057D01*
X265697200Y-193142914D01*
X264982914Y-193285771D01*
X266197200Y-192785771D02*
X266554342Y-193785771D01*
X266911485Y-192785771D01*
X267482914Y-193642914D02*
X267554342Y-193714342D01*
X267482914Y-193785771D01*
X267411485Y-193714342D01*
X267482914Y-193642914D01*
X267482914Y-193785771D01*
X267482914Y-192857200D02*
X267554342Y-192928628D01*
X267482914Y-193000057D01*
X267411485Y-192928628D01*
X267482914Y-192857200D01*
X267482914Y-193000057D01*
D10*
D11*
X178362914Y-193714342D02*
X178577200Y-193785771D01*
X178934342Y-193785771D01*
X179077200Y-193714342D01*
X179148628Y-193642914D01*
X179220057Y-193500057D01*
X179220057Y-193357200D01*
X179148628Y-193214342D01*
X179077200Y-193142914D01*
X178934342Y-193071485D01*
X178648628Y-193000057D01*
X178505771Y-192928628D01*
X178434342Y-192857200D01*
X178362914Y-192714342D01*
X178362914Y-192571485D01*
X178434342Y-192428628D01*
X178505771Y-192357200D01*
X178648628Y-192285771D01*
X179005771Y-192285771D01*
X179220057Y-192357200D01*
X179862914Y-193785771D02*
X179862914Y-192785771D01*
X179862914Y-192285771D02*
X179791485Y-192357200D01*
X179862914Y-192428628D01*
X179934342Y-192357200D01*
X179862914Y-192285771D01*
X179862914Y-192428628D01*
X180434342Y-192785771D02*
X181220057Y-192785771D01*
X180434342Y-193785771D01*
X181220057Y-193785771D01*
X182362914Y-193714342D02*
X182220057Y-193785771D01*
X181934342Y-193785771D01*
X181791485Y-193714342D01*
X181720057Y-193571485D01*
X181720057Y-193000057D01*
X181791485Y-192857200D01*
X181934342Y-192785771D01*
X182220057Y-192785771D01*
X182362914Y-192857200D01*
X182434342Y-193000057D01*
X182434342Y-193142914D01*
X181720057Y-193285771D01*
X183077200Y-193642914D02*
X183148628Y-193714342D01*
X183077200Y-193785771D01*
X183005771Y-193714342D01*
X183077200Y-193642914D01*
X183077200Y-193785771D01*
X183077200Y-192857200D02*
X183148628Y-192928628D01*
X183077200Y-193000057D01*
X183005771Y-192928628D01*
X183077200Y-192857200D01*
X183077200Y-193000057D01*
X184862914Y-193357200D02*
X185577200Y-193357200D01*
X184720057Y-193785771D02*
X185220057Y-192285771D01*
X185720057Y-193785771D01*
X186862914Y-192785771D02*
X186862914Y-193785771D01*
X186505771Y-192214342D02*
X186148628Y-193285771D01*
X187077200Y-193285771D01*
D10*
D11*
X263434342Y-196585771D02*
X263434342Y-195085771D01*
X264791485Y-196585771D02*
X264791485Y-195085771D01*
X264791485Y-196514342D02*
X264648628Y-196585771D01*
X264362914Y-196585771D01*
X264220057Y-196514342D01*
X264148628Y-196442914D01*
X264077200Y-196300057D01*
X264077200Y-195871485D01*
X264148628Y-195728628D01*
X264220057Y-195657200D01*
X264362914Y-195585771D01*
X264648628Y-195585771D01*
X264791485Y-195657200D01*
X265505771Y-196442914D02*
X265577200Y-196514342D01*
X265505771Y-196585771D01*
X265434342Y-196514342D01*
X265505771Y-196442914D01*
X265505771Y-196585771D01*
X265505771Y-195657200D02*
X265577200Y-195728628D01*
X265505771Y-195800057D01*
X265434342Y-195728628D01*
X265505771Y-195657200D01*
X265505771Y-195800057D01*
X268148628Y-196585771D02*
X267291485Y-196585771D01*
X267720057Y-196585771D02*
X267720057Y-195085771D01*
X267577200Y-195300057D01*
X267434342Y-195442914D01*
X267291485Y-195514342D01*
X269862914Y-195014342D02*
X268577200Y-196942914D01*
X271148628Y-196585771D02*
X270291485Y-196585771D01*
X270720057Y-196585771D02*
X270720057Y-195085771D01*
X270577200Y-195300057D01*
X270434342Y-195442914D01*
X270291485Y-195514342D01*
D10*
D11*
X177002200Y-187507200D02*
X285002200Y-187507200D01*
D10*
D13*
X178714580Y-188211961D02*
X179857438Y-188211961D01*
X179036009Y-190211961D02*
X179286009Y-188211961D01*
X180274104Y-190211961D02*
X180440771Y-188878628D01*
X180524104Y-188211961D02*
X180416961Y-188307200D01*
X180500295Y-188402438D01*
X180607438Y-188307200D01*
X180524104Y-188211961D01*
X180500295Y-188402438D01*
X181107438Y-188878628D02*
X181869342Y-188878628D01*
X181476485Y-188211961D02*
X181262200Y-189926247D01*
X181333628Y-190116723D01*
X181512200Y-190211961D01*
X181702676Y-190211961D01*
X182655057Y-190211961D02*
X182476485Y-190116723D01*
X182405057Y-189926247D01*
X182619342Y-188211961D01*
X184190771Y-190116723D02*
X183988390Y-190211961D01*
X183607438Y-190211961D01*
X183428866Y-190116723D01*
X183357438Y-189926247D01*
X183452676Y-189164342D01*
X183571723Y-188973866D01*
X183774104Y-188878628D01*
X184155057Y-188878628D01*
X184333628Y-188973866D01*
X184405057Y-189164342D01*
X184381247Y-189354819D01*
X183405057Y-189545295D01*
X185155057Y-190021485D02*
X185238390Y-190116723D01*
X185131247Y-190211961D01*
X185047914Y-190116723D01*
X185155057Y-190021485D01*
X185131247Y-190211961D01*
X185286009Y-188973866D02*
X185369342Y-189069104D01*
X185262200Y-189164342D01*
X185178866Y-189069104D01*
X185286009Y-188973866D01*
X185262200Y-189164342D01*
D10*
D11*
X178934342Y-185600057D02*
X178434342Y-185600057D01*
X178434342Y-186385771D02*
X178434342Y-184885771D01*
X179148628Y-184885771D01*
X179720057Y-186385771D02*
X179720057Y-185385771D01*
X179720057Y-184885771D02*
X179648628Y-184957200D01*
X179720057Y-185028628D01*
X179791485Y-184957200D01*
X179720057Y-184885771D01*
X179720057Y-185028628D01*
X180648628Y-186385771D02*
X180505771Y-186314342D01*
X180434342Y-186171485D01*
X180434342Y-184885771D01*
X181791485Y-186314342D02*
X181648628Y-186385771D01*
X181362914Y-186385771D01*
X181220057Y-186314342D01*
X181148628Y-186171485D01*
X181148628Y-185600057D01*
X181220057Y-185457200D01*
X181362914Y-185385771D01*
X181648628Y-185385771D01*
X181791485Y-185457200D01*
X181862914Y-185600057D01*
X181862914Y-185742914D01*
X181148628Y-185885771D01*
X182505771Y-186242914D02*
X182577200Y-186314342D01*
X182505771Y-186385771D01*
X182434342Y-186314342D01*
X182505771Y-186242914D01*
X182505771Y-186385771D01*
X182505771Y-185457200D02*
X182577200Y-185528628D01*
X182505771Y-185600057D01*
X182434342Y-185528628D01*
X182505771Y-185457200D01*
X182505771Y-185600057D01*
X184148628Y-185385771D02*
X184720057Y-185385771D01*
X184362914Y-186385771D02*
X184362914Y-185100057D01*
X184434342Y-184957200D01*
X184577200Y-184885771D01*
X184720057Y-184885771D01*
X185862914Y-186385771D02*
X185862914Y-185600057D01*
X185791485Y-185457200D01*
X185648628Y-185385771D01*
X185362914Y-185385771D01*
X185220057Y-185457200D01*
X185862914Y-186314342D02*
X185720057Y-186385771D01*
X185362914Y-186385771D01*
X185220057Y-186314342D01*
X185148628Y-186171485D01*
X185148628Y-186028628D01*
X185220057Y-185885771D01*
X185362914Y-185814342D01*
X185720057Y-185814342D01*
X185862914Y-185742914D01*
X186577200Y-185385771D02*
X186577200Y-186385771D01*
X186577200Y-185528628D02*
X186648628Y-185457200D01*
X186791485Y-185385771D01*
X187005771Y-185385771D01*
X187148628Y-185457200D01*
X187220057Y-185600057D01*
X187220057Y-186385771D01*
X189720057Y-186385771D02*
X189720057Y-184885771D01*
X189720057Y-186314342D02*
X189577200Y-186385771D01*
X189291485Y-186385771D01*
X189148628Y-186314342D01*
X189077200Y-186242914D01*
X189005771Y-186100057D01*
X189005771Y-185671485D01*
X189077200Y-185528628D01*
X189148628Y-185457200D01*
X189291485Y-185385771D01*
X189577200Y-185385771D01*
X189720057Y-185457200D01*
X190434342Y-186385771D02*
X190434342Y-185385771D01*
X190434342Y-184885771D02*
X190362914Y-184957200D01*
X190434342Y-185028628D01*
X190505771Y-184957200D01*
X190434342Y-184885771D01*
X190434342Y-185028628D01*
X191148628Y-186385771D02*
X191148628Y-185385771D01*
X191148628Y-185528628D02*
X191220057Y-185457200D01*
X191362914Y-185385771D01*
X191577200Y-185385771D01*
X191720057Y-185457200D01*
X191791485Y-185600057D01*
X191791485Y-186385771D01*
X191791485Y-185600057D02*
X191862914Y-185457200D01*
X192005771Y-185385771D01*
X192220057Y-185385771D01*
X192362914Y-185457200D01*
X192434342Y-185600057D01*
X192434342Y-186385771D01*
X193148628Y-186385771D02*
X193148628Y-185385771D01*
X193148628Y-185528628D02*
X193220057Y-185457200D01*
X193362914Y-185385771D01*
X193577200Y-185385771D01*
X193720057Y-185457200D01*
X193791485Y-185600057D01*
X193791485Y-186385771D01*
X193791485Y-185600057D02*
X193862914Y-185457200D01*
X194005771Y-185385771D01*
X194220057Y-185385771D01*
X194362914Y-185457200D01*
X194434342Y-185600057D01*
X194434342Y-186385771D01*
X195720057Y-186314342D02*
X195577200Y-186385771D01*
X195291485Y-186385771D01*
X195148628Y-186314342D01*
X195077200Y-186171485D01*
X195077200Y-185600057D01*
X195148628Y-185457200D01*
X195291485Y-185385771D01*
X195577200Y-185385771D01*
X195720057Y-185457200D01*
X195791485Y-185600057D01*
X195791485Y-185742914D01*
X195077200Y-185885771D01*
X196434342Y-186385771D02*
X196434342Y-185385771D01*
X196434342Y-185671485D02*
X196505771Y-185528628D01*
X196577200Y-185457200D01*
X196720057Y-185385771D01*
X196862914Y-185385771D01*
X197362914Y-186242914D02*
X197434342Y-186314342D01*
X197362914Y-186385771D01*
X197291485Y-186314342D01*
X197362914Y-186242914D01*
X197362914Y-186385771D01*
X198077200Y-186385771D02*
X198077200Y-184885771D01*
X198220057Y-185814342D02*
X198648628Y-186385771D01*
X198648628Y-185385771D02*
X198077200Y-185957200D01*
X199291485Y-186385771D02*
X199291485Y-185385771D01*
X199291485Y-184885771D02*
X199220057Y-184957200D01*
X199291485Y-185028628D01*
X199362914Y-184957200D01*
X199291485Y-184885771D01*
X199291485Y-185028628D01*
X200648628Y-186314342D02*
X200505771Y-186385771D01*
X200220057Y-186385771D01*
X200077200Y-186314342D01*
X200005771Y-186242914D01*
X199934342Y-186100057D01*
X199934342Y-185671485D01*
X200005771Y-185528628D01*
X200077200Y-185457200D01*
X200220057Y-185385771D01*
X200505771Y-185385771D01*
X200648628Y-185457200D01*
X201934342Y-186385771D02*
X201934342Y-185600057D01*
X201862914Y-185457200D01*
X201720057Y-185385771D01*
X201434342Y-185385771D01*
X201291485Y-185457200D01*
X201934342Y-186314342D02*
X201791485Y-186385771D01*
X201434342Y-186385771D01*
X201291485Y-186314342D01*
X201220057Y-186171485D01*
X201220057Y-186028628D01*
X201291485Y-185885771D01*
X201434342Y-185814342D01*
X201791485Y-185814342D01*
X201934342Y-185742914D01*
X203291485Y-186385771D02*
X203291485Y-184885771D01*
X203291485Y-186314342D02*
X203148628Y-186385771D01*
X202862914Y-186385771D01*
X202720057Y-186314342D01*
X202648628Y-186242914D01*
X202577200Y-186100057D01*
X202577200Y-185671485D01*
X202648628Y-185528628D01*
X202720057Y-185457200D01*
X202862914Y-185385771D01*
X203148628Y-185385771D01*
X203291485Y-185457200D01*
X203648628Y-186528628D02*
X204791485Y-186528628D01*
X205148628Y-185385771D02*
X205148628Y-186885771D01*
X205148628Y-185457200D02*
X205291485Y-185385771D01*
X205577200Y-185385771D01*
X205720057Y-185457200D01*
X205791485Y-185528628D01*
X205862914Y-185671485D01*
X205862914Y-186100057D01*
X205791485Y-186242914D01*
X205720057Y-186314342D01*
X205577200Y-186385771D01*
X205291485Y-186385771D01*
X205148628Y-186314342D01*
X207148628Y-186314342D02*
X207005771Y-186385771D01*
X206720057Y-186385771D01*
X206577200Y-186314342D01*
X206505771Y-186242914D01*
X206434342Y-186100057D01*
X206434342Y-185671485D01*
X206505771Y-185528628D01*
X206577200Y-185457200D01*
X206720057Y-185385771D01*
X207005771Y-185385771D01*
X207148628Y-185457200D01*
X207791485Y-186385771D02*
X207791485Y-184885771D01*
X207791485Y-185457200D02*
X207934342Y-185385771D01*
X208220057Y-185385771D01*
X208362914Y-185457200D01*
X208434342Y-185528628D01*
X208505771Y-185671485D01*
X208505771Y-186100057D01*
X208434342Y-186242914D01*
X208362914Y-186314342D01*
X208220057Y-186385771D01*
X207934342Y-186385771D01*
X207791485Y-186314342D01*
D10*
D11*
X177002200Y-181507200D02*
X285002200Y-181507200D01*
D10*
D11*
X178362914Y-183614342D02*
X178577200Y-183685771D01*
X178934342Y-183685771D01*
X179077200Y-183614342D01*
X179148628Y-183542914D01*
X179220057Y-183400057D01*
X179220057Y-183257200D01*
X179148628Y-183114342D01*
X179077200Y-183042914D01*
X178934342Y-182971485D01*
X178648628Y-182900057D01*
X178505771Y-182828628D01*
X178434342Y-182757200D01*
X178362914Y-182614342D01*
X178362914Y-182471485D01*
X178434342Y-182328628D01*
X178505771Y-182257200D01*
X178648628Y-182185771D01*
X179005771Y-182185771D01*
X179220057Y-182257200D01*
X179862914Y-183685771D02*
X179862914Y-182185771D01*
X180505771Y-183685771D02*
X180505771Y-182900057D01*
X180434342Y-182757200D01*
X180291485Y-182685771D01*
X180077200Y-182685771D01*
X179934342Y-182757200D01*
X179862914Y-182828628D01*
X181791485Y-183614342D02*
X181648628Y-183685771D01*
X181362914Y-183685771D01*
X181220057Y-183614342D01*
X181148628Y-183471485D01*
X181148628Y-182900057D01*
X181220057Y-182757200D01*
X181362914Y-182685771D01*
X181648628Y-182685771D01*
X181791485Y-182757200D01*
X181862914Y-182900057D01*
X181862914Y-183042914D01*
X181148628Y-183185771D01*
X183077200Y-183614342D02*
X182934342Y-183685771D01*
X182648628Y-183685771D01*
X182505771Y-183614342D01*
X182434342Y-183471485D01*
X182434342Y-182900057D01*
X182505771Y-182757200D01*
X182648628Y-182685771D01*
X182934342Y-182685771D01*
X183077200Y-182757200D01*
X183148628Y-182900057D01*
X183148628Y-183042914D01*
X182434342Y-183185771D01*
X183577200Y-182685771D02*
X184148628Y-182685771D01*
X183791485Y-182185771D02*
X183791485Y-183471485D01*
X183862914Y-183614342D01*
X184005771Y-183685771D01*
X184148628Y-183685771D01*
X184648628Y-183542914D02*
X184720057Y-183614342D01*
X184648628Y-183685771D01*
X184577200Y-183614342D01*
X184648628Y-183542914D01*
X184648628Y-183685771D01*
X184648628Y-182757200D02*
X184720057Y-182828628D01*
X184648628Y-182900057D01*
X184577200Y-182828628D01*
X184648628Y-182757200D01*
X184648628Y-182900057D01*
D10*
D11*
X197002200Y-191507200D02*
X197002200Y-194507200D01*
D10*
D11*
X261002200Y-191507200D02*
X261002200Y-198007200D01*
D14*
X209121904Y-95289714D02*
X209502857Y-95289714D01*
X209264761Y-95956380D02*
X209264761Y-95099238D01*
X209312380Y-95004000D01*
X209407619Y-94956380D01*
X209502857Y-94956380D01*
X210264761Y-95956380D02*
X210264761Y-95432571D01*
X210217142Y-95337333D01*
X210121904Y-95289714D01*
X209931428Y-95289714D01*
X209836190Y-95337333D01*
X210264761Y-95908761D02*
X210169523Y-95956380D01*
X209931428Y-95956380D01*
X209836190Y-95908761D01*
X209788571Y-95813523D01*
X209788571Y-95718285D01*
X209836190Y-95623047D01*
X209931428Y-95575428D01*
X210169523Y-95575428D01*
X210264761Y-95527809D01*
X210740952Y-95289714D02*
X210740952Y-95956380D01*
X210740952Y-95384952D02*
X210788571Y-95337333D01*
X210883809Y-95289714D01*
X211026666Y-95289714D01*
X211121904Y-95337333D01*
X211169523Y-95432571D01*
X211169523Y-95956380D01*
X212836190Y-95956380D02*
X212836190Y-94956380D01*
X212836190Y-95908761D02*
X212740952Y-95956380D01*
X212550476Y-95956380D01*
X212455238Y-95908761D01*
X212407619Y-95861142D01*
X212360000Y-95765904D01*
X212360000Y-95480190D01*
X212407619Y-95384952D01*
X212455238Y-95337333D01*
X212550476Y-95289714D01*
X212740952Y-95289714D01*
X212836190Y-95337333D01*
X213312380Y-95956380D02*
X213312380Y-95289714D01*
X213312380Y-94956380D02*
X213264761Y-95004000D01*
X213312380Y-95051619D01*
X213360000Y-95004000D01*
X213312380Y-94956380D01*
X213312380Y-95051619D01*
X213788571Y-95956380D02*
X213788571Y-95289714D01*
X213788571Y-95384952D02*
X213836190Y-95337333D01*
X213931428Y-95289714D01*
X214074285Y-95289714D01*
X214169523Y-95337333D01*
X214217142Y-95432571D01*
X214217142Y-95956380D01*
X214217142Y-95432571D02*
X214264761Y-95337333D01*
X214360000Y-95289714D01*
X214502857Y-95289714D01*
X214598095Y-95337333D01*
X214645714Y-95432571D01*
X214645714Y-95956380D01*
X215121904Y-95956380D02*
X215121904Y-95289714D01*
X215121904Y-95384952D02*
X215169523Y-95337333D01*
X215264761Y-95289714D01*
X215407619Y-95289714D01*
X215502857Y-95337333D01*
X215550476Y-95432571D01*
X215550476Y-95956380D01*
X215550476Y-95432571D02*
X215598095Y-95337333D01*
X215693333Y-95289714D01*
X215836190Y-95289714D01*
X215931428Y-95337333D01*
X215979047Y-95432571D01*
X215979047Y-95956380D01*
X216836190Y-95908761D02*
X216740952Y-95956380D01*
X216550476Y-95956380D01*
X216455238Y-95908761D01*
X216407619Y-95813523D01*
X216407619Y-95432571D01*
X216455238Y-95337333D01*
X216550476Y-95289714D01*
X216740952Y-95289714D01*
X216836190Y-95337333D01*
X216883809Y-95432571D01*
X216883809Y-95527809D01*
X216407619Y-95623047D01*
X217312380Y-95956380D02*
X217312380Y-95289714D01*
X217312380Y-95480190D02*
X217360000Y-95384952D01*
X217407619Y-95337333D01*
X217502857Y-95289714D01*
X217598095Y-95289714D01*
D15*
%TO.P,Battery1,1*%
%TO.N,Net-(Battery1-Pad1)*%
X116332000Y-62484000D03*
D16*
%TO.P,Battery1,2*%
%TO.N,GND*%
X136822000Y-62484000D03*
%TD*%
D17*
%TO.P,C2,2*%
%TO.N,GND*%
X110236000Y-29488000D03*
%TO.P,C2,1*%
%TO.N,Net-(C2-Pad1)*%
X110236000Y-32488000D03*
%TD*%
%TO.P,C1,2*%
%TO.N,GND*%
X129540000Y-17296000D03*
%TO.P,C1,1*%
%TO.N,Net-(C1-Pad1)*%
X129540000Y-20296000D03*
%TD*%
D18*
%TO.P,U4,8*%
%TO.N,Net-(Battery1-Pad1)*%
X109728000Y-44704000D03*
%TO.P,U4,4*%
X117348000Y-37084000D03*
%TO.P,U4,7*%
%TO.N,Net-(D5-Pad2)*%
X109728000Y-42164000D03*
%TO.P,U4,3*%
%TO.N,PWM*%
X117348000Y-39624000D03*
%TO.P,U4,6*%
%TO.N,Net-(C1-Pad1)*%
X109728000Y-39624000D03*
%TO.P,U4,2*%
X117348000Y-42164000D03*
%TO.P,U4,5*%
%TO.N,Net-(C2-Pad1)*%
X109728000Y-37084000D03*
D19*
%TO.P,U4,1*%
%TO.N,GND*%
X117348000Y-44704000D03*
%TD*%
%TO.P,R10,2*%
%TO.N,Net-(D6-Pad2)*%
%TA.AperFunction,SMDPad,CuDef*%
G36*
G01*
X102891000Y-45803000D02*
X102341000Y-45803000D01*
G75*
G02*
X102141000Y-45603000I0J200000D01*
G01*
X102141000Y-45203000D01*
G75*
G02*
X102341000Y-45003000I200000J0D01*
G01*
X102891000Y-45003000D01*
G75*
G02*
X103091000Y-45203000I0J-200000D01*
G01*
X103091000Y-45603000D01*
G75*
G02*
X102891000Y-45803000I-200000J0D01*
G01*
G37*
%TD.AperFunction*%
%TO.P,R10,1*%
%TO.N,PWM*%
%TA.AperFunction,SMDPad,CuDef*%
G36*
G01*
X102891000Y-47453000D02*
X102341000Y-47453000D01*
G75*
G02*
X102141000Y-47253000I0J200000D01*
G01*
X102141000Y-46853000D01*
G75*
G02*
X102341000Y-46653000I200000J0D01*
G01*
X102891000Y-46653000D01*
G75*
G02*
X103091000Y-46853000I0J-200000D01*
G01*
X103091000Y-47253000D01*
G75*
G02*
X102891000Y-47453000I-200000J0D01*
G01*
G37*
%TD.AperFunction*%
%TD*%
%TO.P,R9,2*%
%TO.N,Net-(D4-Pad2)*%
%TA.AperFunction,SMDPad,CuDef*%
G36*
G01*
X129794827Y-38789000D02*
X129244827Y-38789000D01*
G75*
G02*
X129044827Y-38589000I0J200000D01*
G01*
X129044827Y-38189000D01*
G75*
G02*
X129244827Y-37989000I200000J0D01*
G01*
X129794827Y-37989000D01*
G75*
G02*
X129994827Y-38189000I0J-200000D01*
G01*
X129994827Y-38589000D01*
G75*
G02*
X129794827Y-38789000I-200000J0D01*
G01*
G37*
%TD.AperFunction*%
%TO.P,R9,1*%
%TO.N,Net-(R8-Pad2)*%
%TA.AperFunction,SMDPad,CuDef*%
G36*
G01*
X129794827Y-40439000D02*
X129244827Y-40439000D01*
G75*
G02*
X129044827Y-40239000I0J200000D01*
G01*
X129044827Y-39839000D01*
G75*
G02*
X129244827Y-39639000I200000J0D01*
G01*
X129794827Y-39639000D01*
G75*
G02*
X129994827Y-39839000I0J-200000D01*
G01*
X129994827Y-40239000D01*
G75*
G02*
X129794827Y-40439000I-200000J0D01*
G01*
G37*
%TD.AperFunction*%
%TD*%
%TO.P,R8,2*%
%TO.N,Net-(R8-Pad2)*%
%TA.AperFunction,SMDPad,CuDef*%
G36*
G01*
X129794827Y-42799000D02*
X129244827Y-42799000D01*
G75*
G02*
X129044827Y-42599000I0J200000D01*
G01*
X129044827Y-42199000D01*
G75*
G02*
X129244827Y-41999000I200000J0D01*
G01*
X129794827Y-41999000D01*
G75*
G02*
X129994827Y-42199000I0J-200000D01*
G01*
X129994827Y-42599000D01*
G75*
G02*
X129794827Y-42799000I-200000J0D01*
G01*
G37*
%TD.AperFunction*%
%TO.P,R8,1*%
%TO.N,Net-(D5-Pad2)*%
%TA.AperFunction,SMDPad,CuDef*%
G36*
G01*
X129794827Y-44449000D02*
X129244827Y-44449000D01*
G75*
G02*
X129044827Y-44249000I0J200000D01*
G01*
X129044827Y-43849000D01*
G75*
G02*
X129244827Y-43649000I200000J0D01*
G01*
X129794827Y-43649000D01*
G75*
G02*
X129994827Y-43849000I0J-200000D01*
G01*
X129994827Y-44249000D01*
G75*
G02*
X129794827Y-44449000I-200000J0D01*
G01*
G37*
%TD.AperFunction*%
%TD*%
%TO.P,R7,2*%
%TO.N,Net-(D5-Pad2)*%
%TA.AperFunction,SMDPad,CuDef*%
G36*
G01*
X129794827Y-46809000D02*
X129244827Y-46809000D01*
G75*
G02*
X129044827Y-46609000I0J200000D01*
G01*
X129044827Y-46209000D01*
G75*
G02*
X129244827Y-46009000I200000J0D01*
G01*
X129794827Y-46009000D01*
G75*
G02*
X129994827Y-46209000I0J-200000D01*
G01*
X129994827Y-46609000D01*
G75*
G02*
X129794827Y-46809000I-200000J0D01*
G01*
G37*
%TD.AperFunction*%
%TO.P,R7,1*%
%TO.N,Net-(Battery1-Pad1)*%
%TA.AperFunction,SMDPad,CuDef*%
G36*
G01*
X129794827Y-48459000D02*
X129244827Y-48459000D01*
G75*
G02*
X129044827Y-48259000I0J200000D01*
G01*
X129044827Y-47859000D01*
G75*
G02*
X129244827Y-47659000I200000J0D01*
G01*
X129794827Y-47659000D01*
G75*
G02*
X129994827Y-47859000I0J-200000D01*
G01*
X129994827Y-48259000D01*
G75*
G02*
X129794827Y-48459000I-200000J0D01*
G01*
G37*
%TD.AperFunction*%
%TD*%
D20*
%TO.P,J1,2*%
%TO.N,Net-(D2-Pad2)*%
X181864000Y-69596000D03*
D21*
%TO.P,J1,1*%
%TO.N,Net-(D3-Pad3)*%
X179324000Y-69596000D03*
%TD*%
D20*
%TO.P,D6,2*%
%TO.N,Net-(D6-Pad2)*%
X100584000Y-39116000D03*
D21*
%TO.P,D6,1*%
%TO.N,GND*%
X103124000Y-39116000D03*
%TD*%
D22*
%TO.P,D5,2*%
%TO.N,Net-(D5-Pad2)*%
X123444000Y-32512000D03*
D23*
%TO.P,D5,1*%
%TO.N,Net-(C1-Pad1)*%
X123444000Y-42672000D03*
%TD*%
D22*
%TO.P,D4,2*%
%TO.N,Net-(D4-Pad2)*%
X129540000Y-24384000D03*
D23*
%TO.P,D4,1*%
%TO.N,Net-(C1-Pad1)*%
X129540000Y-34544000D03*
%TD*%
D24*
%TO.P,U2,4*%
%TO.N,Net-(R3-Pad1)*%
X176961800Y-81788000D03*
%TO.P,U2,3*%
%TO.N,Net-(R4-Pad1)*%
X176961800Y-76708000D03*
%TO.P,U2,2*%
%TO.N,Net-(R5-Pad2)*%
X185750200Y-76708000D03*
%TO.P,U2,1*%
%TO.N,GND*%
X185750200Y-81788000D03*
%TD*%
D25*
%TO.P,U1,6*%
%TO.N,Net-(R2-Pad2)*%
X155702000Y-84836000D03*
%TO.P,U1,5*%
%TO.N,N/C*%
X155702000Y-87376000D03*
%TO.P,U1,4*%
%TO.N,Net-(D3-Pad1)*%
X155702000Y-89916000D03*
%TO.P,U1,3*%
%TO.N,N/C*%
X148082000Y-89916000D03*
%TO.P,U1,2*%
%TO.N,GND*%
X148082000Y-87376000D03*
D26*
%TO.P,U1,1*%
%TO.N,Net-(R1-Pad2)*%
X148082000Y-84836000D03*
%TD*%
D27*
%TO.P,D3,3*%
%TO.N,Net-(D3-Pad3)*%
X165608000Y-89408000D03*
%TO.P,D3,2*%
%TO.N,Net-(D2-Pad1)*%
X163068000Y-89408000D03*
D28*
%TO.P,D3,1*%
%TO.N,Net-(D3-Pad1)*%
X160528000Y-89408000D03*
%TD*%
D29*
%TO.P,J2,4*%
%TO.N,PWM*%
X217424000Y-72740000D03*
%TO.P,J2,3*%
%TO.N,Net-(J2-Pad3)*%
X217424000Y-74740000D03*
%TO.P,J2,2*%
%TO.N,Net-(J2-Pad2)*%
X217424000Y-76740000D03*
D30*
%TO.P,J2,1*%
%TO.N,GND*%
X217424000Y-78740000D03*
%TD*%
D18*
%TO.P,U3,6*%
%TO.N,Net-(U3-Pad6)*%
X202692000Y-74676000D03*
%TO.P,U3,3*%
%TO.N,Net-(U3-Pad3)*%
X195072000Y-79756000D03*
%TO.P,U3,5*%
%TO.N,Net-(J2-Pad3)*%
X202692000Y-77216000D03*
%TO.P,U3,2*%
%TO.N,GND*%
X195072000Y-77216000D03*
%TO.P,U3,4*%
X202692000Y-79756000D03*
D19*
%TO.P,U3,1*%
%TO.N,Net-(R5-Pad1)*%
X195072000Y-74676000D03*
%TD*%
%TO.P,R6,2*%
%TO.N,Net-(J2-Pad3)*%
%TA.AperFunction,SMDPad,CuDef*%
G36*
G01*
X209063000Y-77108000D02*
X208513000Y-77108000D01*
G75*
G02*
X208313000Y-76908000I0J200000D01*
G01*
X208313000Y-76508000D01*
G75*
G02*
X208513000Y-76308000I200000J0D01*
G01*
X209063000Y-76308000D01*
G75*
G02*
X209263000Y-76508000I0J-200000D01*
G01*
X209263000Y-76908000D01*
G75*
G02*
X209063000Y-77108000I-200000J0D01*
G01*
G37*
%TD.AperFunction*%
%TO.P,R6,1*%
%TO.N,Net-(J2-Pad2)*%
%TA.AperFunction,SMDPad,CuDef*%
G36*
G01*
X209063000Y-78758000D02*
X208513000Y-78758000D01*
G75*
G02*
X208313000Y-78558000I0J200000D01*
G01*
X208313000Y-78158000D01*
G75*
G02*
X208513000Y-77958000I200000J0D01*
G01*
X209063000Y-77958000D01*
G75*
G02*
X209263000Y-78158000I0J-200000D01*
G01*
X209263000Y-78558000D01*
G75*
G02*
X209063000Y-78758000I-200000J0D01*
G01*
G37*
%TD.AperFunction*%
%TD*%
%TO.P,R5,2*%
%TO.N,Net-(R5-Pad2)*%
%TA.AperFunction,SMDPad,CuDef*%
G36*
G01*
X189242000Y-74491000D02*
X189242000Y-74861000D01*
G75*
G02*
X189107000Y-74996000I-135000J0D01*
G01*
X188837000Y-74996000D01*
G75*
G02*
X188702000Y-74861000I0J135000D01*
G01*
X188702000Y-74491000D01*
G75*
G02*
X188837000Y-74356000I135000J0D01*
G01*
X189107000Y-74356000D01*
G75*
G02*
X189242000Y-74491000I0J-135000D01*
G01*
G37*
%TD.AperFunction*%
%TO.P,R5,1*%
%TO.N,Net-(R5-Pad1)*%
%TA.AperFunction,SMDPad,CuDef*%
G36*
G01*
X190262000Y-74491000D02*
X190262000Y-74861000D01*
G75*
G02*
X190127000Y-74996000I-135000J0D01*
G01*
X189857000Y-74996000D01*
G75*
G02*
X189722000Y-74861000I0J135000D01*
G01*
X189722000Y-74491000D01*
G75*
G02*
X189857000Y-74356000I135000J0D01*
G01*
X190127000Y-74356000D01*
G75*
G02*
X190262000Y-74491000I0J-135000D01*
G01*
G37*
%TD.AperFunction*%
%TD*%
%TO.P,R4,2*%
%TO.N,Net-(D2-Pad2)*%
%TA.AperFunction,SMDPad,CuDef*%
G36*
G01*
X171429000Y-77133000D02*
X171979000Y-77133000D01*
G75*
G02*
X172179000Y-77333000I0J-200000D01*
G01*
X172179000Y-77733000D01*
G75*
G02*
X171979000Y-77933000I-200000J0D01*
G01*
X171429000Y-77933000D01*
G75*
G02*
X171229000Y-77733000I0J200000D01*
G01*
X171229000Y-77333000D01*
G75*
G02*
X171429000Y-77133000I200000J0D01*
G01*
G37*
%TD.AperFunction*%
%TO.P,R4,1*%
%TO.N,Net-(R4-Pad1)*%
%TA.AperFunction,SMDPad,CuDef*%
G36*
G01*
X171429000Y-75483000D02*
X171979000Y-75483000D01*
G75*
G02*
X172179000Y-75683000I0J-200000D01*
G01*
X172179000Y-76083000D01*
G75*
G02*
X171979000Y-76283000I-200000J0D01*
G01*
X171429000Y-76283000D01*
G75*
G02*
X171229000Y-76083000I0J200000D01*
G01*
X171229000Y-75683000D01*
G75*
G02*
X171429000Y-75483000I200000J0D01*
G01*
G37*
%TD.AperFunction*%
%TD*%
%TO.P,R3,2*%
%TO.N,Net-(D3-Pad3)*%
%TA.AperFunction,SMDPad,CuDef*%
G36*
G01*
X170771000Y-81513000D02*
X170771000Y-82063000D01*
G75*
G02*
X170571000Y-82263000I-200000J0D01*
G01*
X170171000Y-82263000D01*
G75*
G02*
X169971000Y-82063000I0J200000D01*
G01*
X169971000Y-81513000D01*
G75*
G02*
X170171000Y-81313000I200000J0D01*
G01*
X170571000Y-81313000D01*
G75*
G02*
X170771000Y-81513000I0J-200000D01*
G01*
G37*
%TD.AperFunction*%
%TO.P,R3,1*%
%TO.N,Net-(R3-Pad1)*%
%TA.AperFunction,SMDPad,CuDef*%
G36*
G01*
X172421000Y-81513000D02*
X172421000Y-82063000D01*
G75*
G02*
X172221000Y-82263000I-200000J0D01*
G01*
X171821000Y-82263000D01*
G75*
G02*
X171621000Y-82063000I0J200000D01*
G01*
X171621000Y-81513000D01*
G75*
G02*
X171821000Y-81313000I200000J0D01*
G01*
X172221000Y-81313000D01*
G75*
G02*
X172421000Y-81513000I0J-200000D01*
G01*
G37*
%TD.AperFunction*%
%TD*%
%TO.P,R2,2*%
%TO.N,Net-(R2-Pad2)*%
%TA.AperFunction,SMDPad,CuDef*%
G36*
G01*
X163338000Y-82619000D02*
X163338000Y-82989000D01*
G75*
G02*
X163203000Y-83124000I-135000J0D01*
G01*
X162933000Y-83124000D01*
G75*
G02*
X162798000Y-82989000I0J135000D01*
G01*
X162798000Y-82619000D01*
G75*
G02*
X162933000Y-82484000I135000J0D01*
G01*
X163203000Y-82484000D01*
G75*
G02*
X163338000Y-82619000I0J-135000D01*
G01*
G37*
%TD.AperFunction*%
%TO.P,R2,1*%
%TO.N,Net-(D3-Pad3)*%
%TA.AperFunction,SMDPad,CuDef*%
G36*
G01*
X164358000Y-82619000D02*
X164358000Y-82989000D01*
G75*
G02*
X164223000Y-83124000I-135000J0D01*
G01*
X163953000Y-83124000D01*
G75*
G02*
X163818000Y-82989000I0J135000D01*
G01*
X163818000Y-82619000D01*
G75*
G02*
X163953000Y-82484000I135000J0D01*
G01*
X164223000Y-82484000D01*
G75*
G02*
X164358000Y-82619000I0J-135000D01*
G01*
G37*
%TD.AperFunction*%
%TD*%
%TO.P,R1,2*%
%TO.N,Net-(R1-Pad2)*%
%TA.AperFunction,SMDPad,CuDef*%
G36*
G01*
X152215000Y-80504000D02*
X152585000Y-80504000D01*
G75*
G02*
X152720000Y-80639000I0J-135000D01*
G01*
X152720000Y-80909000D01*
G75*
G02*
X152585000Y-81044000I-135000J0D01*
G01*
X152215000Y-81044000D01*
G75*
G02*
X152080000Y-80909000I0J135000D01*
G01*
X152080000Y-80639000D01*
G75*
G02*
X152215000Y-80504000I135000J0D01*
G01*
G37*
%TD.AperFunction*%
%TO.P,R1,1*%
%TO.N,Net-(D1-Pad1)*%
%TA.AperFunction,SMDPad,CuDef*%
G36*
G01*
X152215000Y-79484000D02*
X152585000Y-79484000D01*
G75*
G02*
X152720000Y-79619000I0J-135000D01*
G01*
X152720000Y-79889000D01*
G75*
G02*
X152585000Y-80024000I-135000J0D01*
G01*
X152215000Y-80024000D01*
G75*
G02*
X152080000Y-79889000I0J135000D01*
G01*
X152080000Y-79619000D01*
G75*
G02*
X152215000Y-79484000I135000J0D01*
G01*
G37*
%TD.AperFunction*%
%TD*%
D20*
%TO.P,D2,2*%
%TO.N,Net-(D2-Pad2)*%
X174244000Y-87376000D03*
D21*
%TO.P,D2,1*%
%TO.N,Net-(D2-Pad1)*%
X174244000Y-89916000D03*
%TD*%
%TO.P,D1,2*%
%TO.N,PWM*%
%TA.AperFunction,SMDPad,CuDef*%
G36*
G01*
X162252000Y-75396500D02*
X162252000Y-74971500D01*
G75*
G02*
X162464500Y-74759000I212500J0D01*
G01*
X163264500Y-74759000D01*
G75*
G02*
X163477000Y-74971500I0J-212500D01*
G01*
X163477000Y-75396500D01*
G75*
G02*
X163264500Y-75609000I-212500J0D01*
G01*
X162464500Y-75609000D01*
G75*
G02*
X162252000Y-75396500I0J212500D01*
G01*
G37*
%TD.AperFunction*%
%TO.P,D1,1*%
%TO.N,Net-(D1-Pad1)*%
%TA.AperFunction,SMDPad,CuDef*%
G36*
G01*
X160627000Y-75396500D02*
X160627000Y-74971500D01*
G75*
G02*
X160839500Y-74759000I212500J0D01*
G01*
X161639500Y-74759000D01*
G75*
G02*
X161852000Y-74971500I0J-212500D01*
G01*
X161852000Y-75396500D01*
G75*
G02*
X161639500Y-75609000I-212500J0D01*
G01*
X160839500Y-75609000D01*
G75*
G02*
X160627000Y-75396500I0J212500D01*
G01*
G37*
%TD.AperFunction*%
%TD*%
D31*
%TO.N,PWM*%
X116473002Y-39624000D02*
X117348000Y-39624000D01*
X109044002Y-47053000D02*
X116473002Y-39624000D01*
X102616000Y-47053000D02*
X109044002Y-47053000D01*
%TO.N,Net-(D1-Pad1)*%
X152400000Y-79754000D02*
X152400000Y-75692000D01*
X160731500Y-75692000D02*
X161239500Y-75184000D01*
X152400000Y-75692000D02*
X160731500Y-75692000D01*
%TO.N,Net-(D2-Pad1)*%
X173531999Y-90628001D02*
X174244000Y-89916000D01*
X164288001Y-90628001D02*
X173531999Y-90628001D01*
X163068000Y-89408000D02*
X164288001Y-90628001D01*
%TO.N,Net-(D3-Pad3)*%
X165608000Y-89408000D02*
X165608000Y-83820000D01*
X165608000Y-83820000D02*
X166624000Y-82804000D01*
X166624000Y-82804000D02*
X167640000Y-82804000D01*
X164088000Y-82804000D02*
X166624000Y-82804000D01*
X168656000Y-81788000D02*
X167640000Y-80772000D01*
X170371000Y-81788000D02*
X168656000Y-81788000D01*
X167640000Y-82804000D02*
X167640000Y-80772000D01*
X177800000Y-71120000D02*
X179324000Y-69596000D01*
X168148000Y-71120000D02*
X177800000Y-71120000D01*
X167640000Y-71628000D02*
X168148000Y-71120000D01*
X167640000Y-80772000D02*
X167640000Y-71628000D01*
%TO.N,Net-(D3-Pad1)*%
X160020000Y-89916000D02*
X160528000Y-89408000D01*
X155702000Y-89916000D02*
X160020000Y-89916000D01*
%TO.N,Net-(J2-Pad3)*%
X203200000Y-76708000D02*
X202692000Y-77216000D01*
X217424000Y-74740000D02*
X206312000Y-74740000D01*
X205740000Y-75312000D02*
X205740000Y-76708000D01*
X206312000Y-74740000D02*
X205740000Y-75312000D01*
X205740000Y-76708000D02*
X203200000Y-76708000D01*
X208788000Y-76708000D02*
X205740000Y-76708000D01*
%TO.N,Net-(J2-Pad2)*%
X208788000Y-78358000D02*
X215774000Y-78358000D01*
X217392000Y-76740000D02*
X217424000Y-76740000D01*
X215774000Y-78358000D02*
X217392000Y-76740000D01*
%TO.N,GND*%
X216408000Y-79756000D02*
X217424000Y-78740000D01*
X202692000Y-79756000D02*
X216408000Y-79756000D01*
X122428000Y-17296000D02*
X110236000Y-29488000D01*
X129540000Y-17296000D02*
X122428000Y-17296000D01*
%TO.N,Net-(R1-Pad2)*%
X148338000Y-84836000D02*
X152400000Y-80774000D01*
X148082000Y-84836000D02*
X148338000Y-84836000D01*
%TO.N,Net-(R2-Pad2)*%
X155702000Y-84836000D02*
X157480000Y-84836000D01*
X157480000Y-84836000D02*
X157480000Y-82804000D01*
X157480000Y-82804000D02*
X163068000Y-82804000D01*
%TO.N,Net-(R3-Pad1)*%
X172021000Y-81788000D02*
X176961800Y-81788000D01*
%TO.N,Net-(R4-Pad1)*%
X176136800Y-75883000D02*
X176961800Y-76708000D01*
X171704000Y-75883000D02*
X176136800Y-75883000D01*
%TO.N,Net-(R5-Pad2)*%
X194052000Y-76708000D02*
X185750200Y-76708000D01*
%TO.N,Net-(R5-Pad1)*%
X189992000Y-74676000D02*
X195072000Y-74676000D01*
%TO.N,Net-(Battery1-Pad1)*%
X116332000Y-61246827D02*
X129519827Y-48059000D01*
X116332000Y-62484000D02*
X116332000Y-61246827D01*
X117348000Y-37084000D02*
X109728000Y-44704000D01*
X121568989Y-44218401D02*
X125409588Y-48059000D01*
X121568990Y-41304990D02*
X121568989Y-44218401D01*
X125409588Y-48059000D02*
X129519827Y-48059000D01*
X117348000Y-37084000D02*
X121568990Y-41304990D01*
%TO.N,Net-(C1-Pad1)*%
X129540000Y-36576000D02*
X123444000Y-42672000D01*
X129540000Y-34544000D02*
X129540000Y-36576000D01*
X129540000Y-34544000D02*
X129540000Y-34036000D01*
X129540000Y-34036000D02*
X126492000Y-30988000D01*
X126492000Y-23344000D02*
X129540000Y-20296000D01*
X126492000Y-30988000D02*
X126492000Y-23344000D01*
%TO.N,Net-(C2-Pad1)*%
X110236000Y-36576000D02*
X109728000Y-37084000D01*
X110236000Y-32488000D02*
X110236000Y-36576000D01*
%TO.N,Net-(D4-Pad2)*%
X130965001Y-25809001D02*
X129540000Y-24384000D01*
X130965001Y-35787409D02*
X130965001Y-25809001D01*
X129519827Y-37232583D02*
X130965001Y-35787409D01*
X129519827Y-38389000D02*
X129519827Y-37232583D01*
%TO.N,Net-(D5-Pad2)*%
X110602998Y-42164000D02*
X109728000Y-42164000D01*
X120254998Y-32512000D02*
X110602998Y-42164000D01*
X123444000Y-32512000D02*
X120254998Y-32512000D01*
X129471826Y-44097001D02*
X129519827Y-44049000D01*
X122083999Y-44097001D02*
X129471826Y-44097001D01*
X122018999Y-44032001D02*
X122083999Y-44097001D01*
X122018999Y-33937001D02*
X122018999Y-44032001D01*
X123444000Y-32512000D02*
X122018999Y-33937001D01*
X129519827Y-44049000D02*
X129519827Y-46409000D01*
%TO.N,Net-(D6-Pad2)*%
X100584000Y-43371000D02*
X102616000Y-45403000D01*
X100584000Y-39116000D02*
X100584000Y-43371000D01*
%TO.N,Net-(R8-Pad2)*%
X129519827Y-42399000D02*
X129519827Y-40039000D01*
%TD*%
M02*
